<svg width="98" height="93" viewBox="0 0 98 93" fill="none" xmlns="http://www.w3.org/2000/svg">
<path d="M96.2055 65.0741C95.1897 64.3895 93.8128 64.6631 93.1326 65.6789C85.9657 76.3562 75.1433 82.5384 63.376 82.7278V73.5193C63.376 73.2136 63.1278 72.9655 62.8221 72.9655C62.5164 72.9655 62.2682 73.2136 62.2682 73.5193V82.73C42.4445 82.4055 26.2474 64.8027 24.845 42.6118H32.7387C33.0444 42.6118 33.2925 42.3636 33.2925 42.0579C33.2925 41.7522 33.0444 41.504 32.7387 41.504H24.7797C24.752 40.835 24.2856 30.0702 27.415 23.364C35.9942 15.7462 47.6718 8.998 62.2671 8.61363V11.5989C62.2671 11.9047 62.5153 12.1528 62.821 12.1528C63.1267 12.1528 63.3748 11.9047 63.3748 11.5989V8.59147C72.95 8.58483 83.2883 11.2278 94.1938 16.5637C95.2971 17.0999 96.6197 16.6446 97.1581 15.5468C97.6953 14.448 97.24 13.1209 96.1412 12.5826C84.6242 6.94983 73.6412 4.13069 63.3748 4.15949V0.55386C63.3748 0.248129 63.1267 0 62.821 0C62.5153 0 62.2671 0.248129 62.2671 0.55386V4.17832C27.0549 5.28493 10.8745 34.9397 6.91882 41.504H2.21544C1.90971 41.504 1.66158 41.7522 1.66158 42.0579C1.66158 42.3636 1.90971 42.6118 2.21544 42.6118H6.26194C2.11685 49.7056 0 55.4447 0 57.1794C0 61.4408 15.7196 71.2563 21.2272 74.359C29.8265 79.2042 46.5054 87.2794 62.2671 87.4655V91.9861C62.2671 92.2919 62.5153 92.54 62.821 92.54C63.1267 92.54 63.3748 92.2919 63.3748 91.9861V87.4722C73.2413 87.4146 83.8743 85.8139 94.9991 82.6935C96.1766 82.3623 96.8645 81.1405 96.5344 79.9618C96.2032 78.7843 94.9803 78.0953 93.8028 78.4265C90.5527 79.3382 87.3514 80.1158 84.2011 80.7583C89.0274 77.6057 93.3154 73.3543 96.8102 68.1458C97.4926 67.1311 97.2212 65.7553 96.2055 65.0741ZM21.0278 29.7434C20.5249 32.6467 20.3322 40.8339 20.3566 41.504H12.1229C14.1456 38.3437 20.4984 30.3349 21.0278 29.7434ZM4.48959 56.8925C4.87507 55.2486 7.06725 49.6325 11.4239 42.6118H20.402C21.2084 56.5247 27.3529 68.8326 36.5614 76.9677C20.361 70.256 6.58539 59.993 4.48959 56.8925ZM74.5207 44.2423V31.848C74.5207 31.2355 74.0256 30.7403 73.413 30.7403H52.2301C51.6175 30.7403 51.1224 31.2355 51.1224 31.848V44.2412L46.2107 48.4638C45.9659 48.6732 45.8252 48.9811 45.8252 49.3035V52.2677C45.8252 52.8803 46.3204 53.3755 46.933 53.3755H78.709C79.3216 53.3755 79.8167 52.8803 79.8167 52.2677V49.3035C79.8167 48.9811 79.676 48.6743 79.4312 48.4638L74.5207 44.2423ZM72.3053 32.9558V44.537H53.3378V32.9558H72.3053ZM52.8881 45.6458H72.7539L76.3651 48.7507H49.2769L52.8881 45.6458ZM48.0407 51.16V49.8573H77.6013V51.16H48.0407ZM39.1003 36.3288C38.6417 36.3288 38.2695 35.9566 38.2695 35.498V18.3383C38.2695 17.8797 38.6417 17.5075 39.1003 17.5075H56.26C56.7186 17.5075 57.0908 17.8797 57.0908 18.3383C57.0908 18.7969 56.7186 19.1691 56.26 19.1691H39.9311V35.498C39.9311 35.9566 39.5589 36.3288 39.1003 36.3288ZM39.9311 48.6189V64.9478H56.26C56.7186 64.9478 57.0908 65.32 57.0908 65.7786C57.0908 66.2372 56.7186 66.6094 56.26 66.6094H39.1003C38.6417 66.6094 38.2695 66.2372 38.2695 65.7786V48.6189C38.2695 48.1603 38.6417 47.7881 39.1003 47.7881C39.5589 47.7881 39.9311 48.1603 39.9311 48.6189ZM85.7109 35.498V19.1691H69.382C68.9234 19.1691 68.5512 18.7969 68.5512 18.3383C68.5512 17.8797 68.9234 17.5075 69.382 17.5075H86.5417C87.0003 17.5075 87.3725 17.8797 87.3725 18.3383V35.498C87.3725 35.9566 87.0003 36.3288 86.5417 36.3288C86.0831 36.3288 85.7109 35.9566 85.7109 35.498ZM86.5417 47.7881C87.0003 47.7881 87.3725 48.1603 87.3725 48.6189V65.7786C87.3725 66.2372 87.0003 66.6094 86.5417 66.6094H69.382C68.9234 66.6094 68.5512 66.2372 68.5512 65.7786C68.5512 65.32 68.9234 64.9478 69.382 64.9478H85.7109V48.6189C85.7109 48.1603 86.0831 47.7881 86.5417 47.7881ZM89.9723 42.0579C89.9723 41.7522 89.7242 41.504 89.4184 41.504H87.0956V39.1811C87.0956 38.8754 86.8474 38.6273 86.5417 38.6273C86.236 38.6273 85.9878 38.8754 85.9878 39.1811V41.504H85.2446C84.951 29.5672 75.3116 19.9279 63.3748 19.6354V18.8922H65.6977C66.0035 18.8922 66.2516 18.644 66.2516 18.3383C66.2516 18.0326 66.0035 17.7844 65.6977 17.7844H63.3748V15.4604C63.3748 15.1547 63.1267 14.9066 62.821 14.9066C62.5153 14.9066 62.2671 15.1547 62.2671 15.4604V17.7844H59.9442C59.6385 17.7844 59.3904 18.0326 59.3904 18.3383C59.3904 18.644 59.6385 18.8922 59.9442 18.8922H62.2671V19.6354C50.3303 19.929 40.691 29.5684 40.3974 41.504H39.6541V39.1623C39.6541 38.8566 39.406 38.6085 39.1003 38.6085C38.7946 38.6085 38.5464 38.8566 38.5464 39.1623V41.504H36.2047C35.899 41.504 35.6508 41.7522 35.6508 42.0579C35.6508 42.3636 35.899 42.6118 36.2047 42.6118H38.5464V44.9546C38.5464 45.2603 38.7946 45.5084 39.1003 45.5084C39.406 45.5084 39.6541 45.2603 39.6541 44.9546V42.6118H40.3974C40.691 54.5485 50.3303 64.1879 62.2671 64.4815V65.2247H59.9254C59.6197 65.2247 59.3716 65.4729 59.3716 65.7786C59.3716 66.0843 59.6197 66.3325 59.9254 66.3325H62.2671V68.6753C62.2671 68.981 62.5153 69.2291 62.821 69.2291C63.1267 69.2291 63.3748 68.981 63.3748 68.6753V66.3325H65.7177C66.0234 66.3325 66.2715 66.0843 66.2715 65.7786C66.2715 65.4729 66.0234 65.2247 65.7177 65.2247H63.3748V64.4815C75.3116 64.1879 84.9521 54.5485 85.2446 42.6118H85.9878V44.9357C85.9878 45.2415 86.236 45.4896 86.5417 45.4896C86.8474 45.4896 87.0956 45.2415 87.0956 44.9357V42.6118H89.4184C89.7242 42.6118 89.9723 42.3647 89.9723 42.0579ZM63.3748 63.3737V62.883C63.3748 62.5773 63.1267 62.3292 62.821 62.3292C62.5153 62.3292 62.2671 62.5773 62.2671 62.883V63.3737C50.9407 63.0813 41.7976 53.9382 41.5051 42.6118H41.997C42.3027 42.6118 42.5508 42.3636 42.5508 42.0579C42.5508 41.7522 42.3027 41.504 41.997 41.504H41.5051C41.7976 30.1787 50.9407 21.0356 62.2671 20.7432V21.215C62.2671 21.5208 62.5153 21.7689 62.821 21.7689C63.1267 21.7689 63.3748 21.5208 63.3748 21.215V20.7432C74.7013 21.0356 83.8444 30.1787 84.1368 41.504H83.6638C83.3581 41.504 83.11 41.7522 83.11 42.0579C83.11 42.3636 83.3581 42.6118 83.6638 42.6118H84.1368C83.8444 53.9382 74.7013 63.0813 63.3748 63.3737ZM95.9263 41.504C96.232 41.504 96.4802 41.7522 96.4802 42.0579C96.4802 42.3636 96.232 42.6118 95.9263 42.6118H92.7959C92.4902 42.6118 92.242 42.3636 92.242 42.0579C92.242 41.7522 92.4902 41.504 92.7959 41.504H95.9263Z" fill="white"/>
</svg>
