<svg width="64" height="64" viewBox="0 0 64 64" fill="none" xmlns="http://www.w3.org/2000/svg">
<path d="M6.66699 56H10.667M30.667 56H26.667M10.667 56V60M10.667 56H16.667M26.667 56V60M26.667 56H20.667M16.667 56V60H20.667V56M16.667 56H20.667" stroke="black" stroke-linecap="round" stroke-linejoin="round"/>
<path d="M6.66699 48H10.667M30.667 48H26.667M10.667 48V52M10.667 48H16.667M26.667 48V52M26.667 48H20.667M16.667 48V52H20.667V48M16.667 48H20.667" stroke="black" stroke-linecap="round" stroke-linejoin="round"/>
<path d="M6.66699 40H10.667M30.667 40H26.667M10.667 40V44M10.667 40H16.667M26.667 40V44M26.667 40H20.667M16.667 40V44H20.667V40M16.667 40H20.667" stroke="black" stroke-linecap="round" stroke-linejoin="round"/>
<path d="M6.66699 56V60H10.667M30.667 56V60H26.667M16.667 60H20.667" stroke="black" stroke-linecap="round" stroke-linejoin="round"/>
<path d="M6.66699 48V52H10.667M30.667 48V52H26.667M16.667 52H20.667" stroke="black" stroke-linecap="round" stroke-linejoin="round"/>
<path d="M6.66699 40V44H10.667M30.667 40V44H26.667M16.667 44H20.667" stroke="black" stroke-linecap="round" stroke-linejoin="round"/>
<path d="M34.667 24H38.667M58.667 24H54.667M38.667 24V28M38.667 24H44.667M54.667 24V28M54.667 24H48.667M44.667 24V28H48.667V24M44.667 24H48.667" stroke="black" stroke-linecap="round" stroke-linejoin="round"/>
<path d="M34.667 16H38.667M58.667 16H54.667M38.667 16V20M38.667 16H44.667M54.667 16V20M54.667 16H48.667M44.667 16V20H48.667V16M44.667 16H48.667" stroke="black" stroke-linecap="round" stroke-linejoin="round"/>
<path d="M34.667 8H38.667M58.667 8H54.667M38.667 8V12M38.667 8H44.667M54.667 8V12M54.667 8H48.667M44.667 8V12H48.667V8M44.667 8H48.667" stroke="black" stroke-linecap="round" stroke-linejoin="round"/>
<path d="M34.667 24V28H38.667M58.667 24V28H54.667M44.667 28H48.667" stroke="black" stroke-linecap="round" stroke-linejoin="round"/>
<path d="M34.667 16V20H38.667M58.667 16V20H54.667M44.667 20H48.667" stroke="black" stroke-linecap="round" stroke-linejoin="round"/>
<path d="M34.667 8V12H38.667M58.667 8V12H54.667M44.667 12H48.667" stroke="black" stroke-linecap="round" stroke-linejoin="round"/>
<path d="M17.334 8V28" stroke="#E25303" stroke-linecap="round" stroke-linejoin="round"/>
<path d="M20.001 8L20.001 9.53846" stroke="black" stroke-linecap="round" stroke-linejoin="round"/>
<path d="M20.001 12.6154L20.001 14.1539" stroke="black" stroke-linecap="round" stroke-linejoin="round"/>
<path d="M20.001 17.2308L20.001 18.7692" stroke="black" stroke-linecap="round" stroke-linejoin="round"/>
<path d="M20.001 21.8462L20.001 23.3847" stroke="black" stroke-linecap="round" stroke-linejoin="round"/>
<path d="M20.001 26.4615L20.001 28" stroke="black" stroke-linecap="round" stroke-linejoin="round"/>
<path d="M45.334 40V60" stroke="#E25303" stroke-linecap="round" stroke-linejoin="round"/>
<path d="M48.001 40L48.001 41.5385" stroke="black" stroke-linecap="round" stroke-linejoin="round"/>
<path d="M48.001 44.6154L48.001 46.1539" stroke="black" stroke-linecap="round" stroke-linejoin="round"/>
<path d="M48.001 49.2308L48.001 50.7692" stroke="black" stroke-linecap="round" stroke-linejoin="round"/>
<path d="M48.001 53.8462L48.001 55.3847" stroke="black" stroke-linecap="round" stroke-linejoin="round"/>
<path d="M48.001 58.4615L48.001 60" stroke="black" stroke-linecap="round" stroke-linejoin="round"/>
</svg>
