<svg width="64" height="64" viewBox="0 0 64 64" fill="none" xmlns="http://www.w3.org/2000/svg">
<path fill-rule="evenodd" clip-rule="evenodd" d="M55.9997 6.68352H7.99967C7.26329 6.68352 6.66634 7.28803 6.66634 8.03373V13.4346C6.66634 14.1803 7.2633 14.7848 7.99968 14.7848H55.9997C56.7361 14.7848 57.333 14.1803 57.333 13.4346V8.03373C57.333 7.28803 56.7361 6.68352 55.9997 6.68352ZM7.99967 5.33331C6.52692 5.33331 5.33301 6.54233 5.33301 8.03373V13.4346C5.33301 14.926 6.52692 16.135 7.99968 16.135H55.9997C57.4724 16.135 58.6663 14.926 58.6663 13.4346V8.03373C58.6663 6.54233 57.4724 5.33331 55.9997 5.33331H7.99967Z" fill="black"/>
<path fill-rule="evenodd" clip-rule="evenodd" d="M42.6663 22.8861H21.333C20.5966 22.8861 19.9997 23.4906 19.9997 24.2363V29.6371C19.9997 30.3828 20.5966 30.9873 21.333 30.9873H42.6663C43.4027 30.9873 43.9997 30.3828 43.9997 29.6371V24.2363C43.9997 23.4906 43.4027 22.8861 42.6663 22.8861ZM21.333 21.5358C19.8602 21.5358 18.6663 22.7449 18.6663 24.2363V29.6371C18.6663 31.1285 19.8602 32.3375 21.333 32.3375H42.6663C44.1391 32.3375 45.333 31.1285 45.333 29.6371V24.2363C45.333 22.7449 44.1391 21.5358 42.6663 21.5358H21.333Z" fill="black"/>
<path fill-rule="evenodd" clip-rule="evenodd" d="M35.9997 32.3375H27.9997V35.0379H35.9997V32.3375ZM27.9997 30.9873C27.2633 30.9873 26.6663 31.5918 26.6663 32.3375V35.0379C26.6663 35.7836 27.2633 36.3882 27.9997 36.3882H30.2153H33.7841H35.9997C36.7361 36.3882 37.333 35.7836 37.333 35.0379V32.3375C37.333 31.5918 36.7361 30.9873 35.9997 30.9873H27.9997Z" fill="black"/>
<path fill-rule="evenodd" clip-rule="evenodd" d="M31.333 22.8861V16.135H32.6663V22.8861H31.333Z" fill="black"/>
<path fill-rule="evenodd" clip-rule="evenodd" d="M13.5539 14.7848H50.4454L50.6414 15.1007C52.7692 18.5304 53.9997 22.5891 53.9997 26.9367C53.9997 39.2407 44.1499 49.2152 31.9997 49.2152C19.8494 49.2152 9.99967 39.2407 9.99967 26.9367C9.99967 22.5891 11.2301 18.5304 13.3579 15.1007L13.5539 14.7848ZM14.2947 16.135C12.4148 19.2879 11.333 22.9834 11.333 26.9367C11.333 34.3545 15.1439 40.8709 20.8913 44.5878C21.2855 44.8427 21.6888 45.0845 22.1007 45.3125C25.0403 46.9399 28.4133 47.865 31.9997 47.865C35.586 47.865 38.959 46.9399 41.8987 45.3125C42.3105 45.0845 42.7139 44.8427 43.1081 44.5878C48.8554 40.8709 52.6663 34.3545 52.6663 26.9367C52.6663 22.9834 51.5845 19.2879 49.7046 16.135H14.2947Z" fill="black"/>
<path d="M35.9997 9.38394H41.333V10.7342H35.9997V9.38394Z" fill="black"/>
<path d="M42.6663 9.38394H47.9997V10.7342H42.6663V9.38394Z" fill="black"/>
<path d="M49.333 9.38394H54.6663V10.7342H49.333V9.38394Z" fill="black"/>
<path fill-rule="evenodd" clip-rule="evenodd" d="M32.4368 35.2033C32.1861 34.9828 31.8133 34.9828 31.5626 35.2033L30.2153 36.3882H33.7841L32.4368 35.2033Z" fill="black"/>
<path d="M27.3333 35.3333L6 58" stroke="#E25303" stroke-linecap="round" stroke-linejoin="round"/>
<path d="M57.9993 58L36.666 35.3333" stroke="#E25303" stroke-linecap="round" stroke-linejoin="round"/>
<path fill-rule="evenodd" clip-rule="evenodd" d="M35.9993 32.35H27.9993V35.05H35.9993V32.35ZM27.9993 31C27.263 31 26.666 31.6044 26.666 32.35V35.05C26.666 35.7956 27.263 36.4 27.9993 36.4H30.2149H33.7838H35.9993C36.7357 36.4 37.3327 35.7956 37.3327 35.05V32.35C37.3327 31.6044 36.7357 31 35.9993 31H27.9993Z" fill="black"/>
</svg>
