<svg width="64" height="64" viewBox="0 0 64 64" fill="none" xmlns="http://www.w3.org/2000/svg">
<path d="M27.0874 44.75H8.33301C6.67615 44.75 5.33301 43.4068 5.33301 41.75V36.25M27.0874 44.75V54.6666M27.0874 44.75H36.912M36.912 44.75H55.6663C57.3232 44.75 58.6663 43.4068 58.6663 41.75V36.25M36.912 44.75V54.6666M17.9646 54.6666H46.7365M5.33301 36.25V12.3333C5.33301 10.6765 6.67615 9.33331 8.333 9.33331H31.9997M5.33301 36.25H31.9997M58.6663 36.25V12.3333C58.6663 10.6765 57.3232 9.33331 55.6663 9.33331H31.9997M58.6663 36.25H31.9997M29.8944 40.5H34.1049M31.9997 9.33331V36.25" stroke="black" stroke-linecap="round" stroke-linejoin="round"/>
<path d="M44.6659 26.6666C47.9796 26.6666 50.6659 23.9803 50.6659 20.6666H44.6659V14.6666C41.3523 14.6666 38.666 17.3529 38.666 20.6666C38.666 23.9803 41.3523 26.6666 44.6659 26.6666Z" stroke="#E25303"/>
<path d="M50.2215 14.6913C49.278 13.8468 48.032 13.3332 46.666 13.3332V18.6666H51.9993C51.9993 17.9503 51.8581 17.267 51.602 16.643C51.2933 15.8909 50.8178 15.225 50.2215 14.6913Z" stroke="#E25303"/>
<path d="M38.3154 29.8749H52.3505M38.3154 32.7083H52.3505" stroke="black" stroke-linecap="round" stroke-linejoin="round"/>
<rect x="10.0439" y="14.0833" width="4.61403" height="10.3333" stroke="black"/>
<rect x="17.0605" y="14.0833" width="4.61404" height="4.66667" stroke="black"/>
<rect x="10.0439" y="26.8333" width="4.61403" height="4.66667" stroke="#E25303"/>
<rect x="24.0781" y="24" width="4.61404" height="7.5" stroke="black"/>
<rect x="24.0781" y="14.0833" width="4.61404" height="7.5" stroke="black"/>
<path d="M17.2627 31.2917V21.375M21.4732 31.2917V21.375" stroke="#E25303" stroke-linecap="round" stroke-linejoin="round"/>
</svg>
