<svg width="95" height="93" viewBox="0 0 95 93" fill="none" xmlns="http://www.w3.org/2000/svg">
<path d="M19.3438 55.605C17.8958 55.605 16.7178 56.784 16.7178 58.232C16.7178 59.68 17.8958 60.858 19.3438 60.858C20.7908 60.858 21.9698 59.68 21.9698 58.232C21.9698 56.784 20.7918 55.605 19.3438 55.605Z" fill="white"/>
<path d="M33.1661 55.605C31.7171 55.605 30.5391 56.784 30.5391 58.232C30.5391 59.68 31.7171 60.858 33.1661 60.858C34.6131 60.858 35.7921 59.68 35.7921 58.232C35.7921 56.784 34.6131 55.605 33.1661 55.605Z" fill="white"/>
<path d="M5.52297 83.248C4.07597 83.248 2.89697 84.4261 2.89697 85.8741C2.89697 87.3221 4.07597 88.4991 5.52297 88.4991C6.97097 88.4991 8.14897 87.321 8.14897 85.873C8.14897 84.425 6.97097 83.248 5.52297 83.248Z" fill="white"/>
<path d="M33.1658 76.679C32.8028 76.679 32.4528 76.626 32.1128 76.547V81.379C32.4528 81.3 32.8018 81.247 33.1658 81.247C33.5098 81.247 33.8428 81.291 34.1658 81.362V76.563C33.8418 76.635 33.5088 76.679 33.1658 76.679Z" fill="white"/>
<path d="M19.3438 83.248C17.8958 83.248 16.7178 84.4261 16.7178 85.8741C16.7178 87.3221 17.8958 88.5001 19.3438 88.5001C20.7908 88.5001 21.9698 87.3221 21.9698 85.8741C21.9698 84.4261 20.7918 83.248 19.3438 83.248Z" fill="white"/>
<path d="M33.1661 69.426C31.7171 69.426 30.5391 70.605 30.5391 72.053C30.5391 73.501 31.7171 74.679 33.1661 74.679C34.6131 74.679 35.7921 73.501 35.7921 72.053C35.7921 70.605 34.6131 69.426 33.1661 69.426Z" fill="white"/>
<path d="M21.9698 72.053C21.9698 70.605 20.7908 69.426 19.3438 69.426C17.8958 69.426 16.7178 70.605 16.7178 72.053C16.7178 73.501 17.8958 74.679 19.3438 74.679C20.7918 74.679 21.9698 73.501 21.9698 72.053Z" fill="white"/>
<path d="M33.1661 83.248C31.7171 83.248 30.5391 84.4261 30.5391 85.8741C30.5391 87.3221 31.7171 88.5001 33.1661 88.5001C34.6131 88.5001 35.7921 87.3221 35.7921 85.8741C35.7921 84.4261 34.6131 83.248 33.1661 83.248Z" fill="white"/>
<path d="M8.14897 58.232C8.14897 56.784 6.97097 55.605 5.52297 55.605C4.07597 55.605 2.89697 56.784 2.89697 58.232C2.89697 59.68 4.07597 60.858 5.52297 60.858C6.97097 60.858 8.14897 59.68 8.14897 58.232Z" fill="white"/>
<path d="M58.42 6.004C59.435 3.941 58.582 1.437 56.521 0.42C55.967 0.148 55.376 0.013 54.767 0C54.158 0.013 53.567 0.147 53.013 0.42L52.175 0.833C51.663 1.219 51.234 1.718 50.938 2.319C49.922 4.382 50.774 6.888 52.837 7.904L52.842 7.906C53.42 8.189 54.036 8.334 54.674 8.334C56.278 8.334 57.713 7.442 58.42 6.004Z" fill="white"/>
<path d="M5.52297 69.426C4.07597 69.426 2.89697 70.605 2.89697 72.053C2.89697 73.501 4.07597 74.679 5.52297 74.679C6.97097 74.679 8.14897 73.501 8.14897 72.053C8.14897 70.605 6.97097 69.426 5.52297 69.426Z" fill="white"/>
<path d="M14.8339 73.053C14.7629 72.73 14.7189 72.397 14.7189 72.053C14.7189 71.709 14.7629 71.376 14.8339 71.053H10.0339C10.1049 71.376 10.1489 71.709 10.1489 72.053C10.1489 72.397 10.1049 72.73 10.0339 73.053H14.8339Z" fill="white"/>
<path d="M6.52295 67.5411V62.7421C6.20095 62.8131 5.86795 62.8571 5.52295 62.8571C5.17895 62.8571 4.84595 62.8131 4.52295 62.7421V67.5411C4.84595 67.4701 5.17895 67.4261 5.52295 67.4261C5.86795 67.4261 6.20095 67.4701 6.52295 67.5411Z" fill="white"/>
<path d="M19.344 81.2481C19.688 81.2481 20.021 81.2921 20.344 81.3631V76.5641C20.021 76.6351 19.688 76.6791 19.344 76.6791C18.999 76.6791 18.666 76.6351 18.344 76.5641V81.3631C18.667 81.2911 19 81.2481 19.344 81.2481Z" fill="white"/>
<path d="M28.654 86.873C28.583 86.55 28.539 86.217 28.539 85.873C28.539 85.529 28.583 85.196 28.654 84.873H23.854C23.926 85.196 23.97 85.529 23.97 85.873C23.97 86.217 23.926 86.55 23.854 86.873H28.654Z" fill="white"/>
<path d="M66.0889 80.057H81.0339C81.3269 80.057 81.5649 79.818 81.5649 79.524V64.58C81.5649 64.286 81.3269 64.047 81.0339 64.047H66.0889C65.7949 64.047 65.5559 64.286 65.5559 64.58V79.524C65.5559 79.818 65.7949 80.057 66.0889 80.057Z" fill="white"/>
<path d="M54.1729 92.538H92.9499C93.5539 92.538 94.0459 92.047 94.0459 91.442V52.664C94.0459 52.06 93.5549 51.567 92.9499 51.567H54.1729C53.5689 51.567 53.0769 52.059 53.0769 52.664V91.442C53.0779 92.046 53.5689 92.538 54.1729 92.538ZM58.2339 76.417H63.5559V73.053H58.2339V71.053H63.5559V67.688H58.2339V65.688H63.5559V64.58C63.5559 63.184 64.6929 62.047 66.0889 62.047H67.1959V56.726H69.1959V62.047H72.5609V56.726H74.5609V62.047H77.9259V56.726H79.9259V62.047H81.0329C82.4289 62.047 83.5639 63.184 83.5639 64.58V65.688H88.8879V67.688H83.5639V71.053H88.8879V73.053H83.5639V76.417H88.8879V78.417H83.5639V79.523C83.5639 80.919 82.4279 82.056 81.0329 82.056H79.9259V87.379H77.9259V82.056H74.5609V87.379H72.5609V82.056H69.1959V87.379H67.1959V82.056H66.0889C64.6929 82.056 63.5559 80.919 63.5559 79.523V78.417H58.2339V76.417Z" fill="white"/>
<path d="M51.0778 71.053H43.6598H37.6768C37.7478 71.376 37.7918 71.709 37.7918 72.053C37.7918 72.397 37.7478 72.73 37.6758 73.053H43.6598H51.0778V71.053Z" fill="white"/>
<path d="M5.254 22.174L12.206 25.277L9.483 32.387L3.665 31.814L3.469 33.804L10.806 34.527L14.278 25.464L22.386 21.284C22.19 21.01 22.008 20.722 21.855 20.413C21.708 20.112 21.593 19.804 21.499 19.493L13.449 23.641L4.677 19.726L0 25.425L1.546 26.694L5.254 22.174Z" fill="white"/>
<path d="M85.885 19.529C86.377 18.53 86.451 17.398 86.092 16.344C85.734 15.289 84.985 14.437 83.986 13.945C83.406 13.66 82.788 13.515 82.148 13.515C80.545 13.515 79.11 14.408 78.403 15.844C77.911 16.843 77.837 17.975 78.196 19.03C78.554 20.085 79.303 20.936 80.302 21.428C80.882 21.713 81.5 21.859 82.14 21.859C83.743 21.859 85.178 20.965 85.885 19.529Z" fill="white"/>
<path d="M76.608 14.96C77.309 13.537 78.499 12.487 79.916 11.94L60.804 2.53003C61.572 5.32803 60.277 8.37303 57.581 9.69903L57.031 9.96903L76.23 19.423C75.792 17.935 75.919 16.361 76.608 14.96Z" fill="white"/>
<path d="M73.5619 37.8641C74.8869 37.8641 76.1509 38.1241 77.3159 38.5801L82.1059 23.8571C81.1689 23.8521 80.2639 23.6391 79.4179 23.2221L78.8239 22.9301L73.3799 37.8731C73.4409 37.8731 73.5009 37.8641 73.5619 37.8641Z" fill="white"/>
<path d="M23.6491 19.5291C24.3581 20.9661 25.7941 21.8591 27.3951 21.8591C27.3961 21.8591 27.3961 21.8591 27.3961 21.8591C28.0361 21.8591 28.6541 21.7131 29.2331 21.4281L52.5051 9.96905L51.9661 9.70405C51.9621 9.70205 51.9571 9.70005 51.9521 9.69805C49.2581 8.37105 47.9621 5.32605 48.7291 2.52905L25.5491 13.9451C23.4871 14.9611 22.6341 17.4661 23.6491 19.5291Z" fill="white"/>
<path d="M81.9078 48.21C81.9078 43.607 78.1638 39.863 73.5618 39.863C68.9598 39.863 65.2158 43.607 65.2158 48.21V49.566H81.9068V48.21H81.9078Z" fill="white"/>
</svg>
