<svg width="95" height="93" viewBox="0 0 95 93" fill="none" xmlns="http://www.w3.org/2000/svg">
<path d="M18.8217 76.8553H12.5479V92.54H18.8217V76.8553Z" fill="white"/>
<path d="M6.2739 67.4444H0V92.54H6.2739V67.4444Z" fill="white"/>
<path d="M94.1084 64.3075H87.8345V92.54H94.1084V64.3075Z" fill="white"/>
<path d="M81.5608 76.8553H75.2869V92.54H81.5608V76.8553Z" fill="white"/>
<path d="M69.0129 83.1292H62.739V92.54H69.0129V83.1292Z" fill="white"/>
<path d="M25.0957 76.6937V92.54H31.3696V72.1843C30.2121 72.211 29.1251 72.669 28.2985 73.4956L25.0957 76.6937Z" fill="white"/>
<path d="M47.0543 53.3281C49.653 53.3281 51.7597 51.2215 51.7597 48.6227C51.7597 46.024 49.653 43.9173 47.0543 43.9173C44.4556 43.9173 42.3489 46.024 42.3489 48.6227C42.3489 51.2215 44.4556 53.3281 47.0543 53.3281Z" fill="white"/>
<path d="M64.2087 50.1912H54.7383C54.0089 53.7657 50.8422 56.4651 47.0543 56.4651C43.2664 56.4651 40.0997 53.7657 39.3704 50.1912H29.8999C33.5294 55.8408 39.855 59.602 47.0543 59.602C54.2536 59.602 60.5793 55.8408 64.2087 50.1912Z" fill="white"/>
<path d="M48.6228 40.9388V29.801C48.6228 28.9352 47.9201 28.2325 47.0543 28.2325C46.1885 28.2325 45.4858 28.9352 45.4858 29.801V40.9388C45.9925 40.8352 46.5179 40.7803 47.0543 40.7803C47.5907 40.7803 48.1162 40.8352 48.6228 40.9388Z" fill="white"/>
<path d="M42.3484 42.3896V29.801C42.3484 27.2067 44.4596 25.0956 47.0538 25.0956C49.6481 25.0956 51.7593 27.2067 51.7593 29.801V42.3896C53.254 43.5204 54.3504 45.1532 54.7378 47.0542H65.8708C66.6896 45.0983 67.1946 42.9872 67.364 40.7803H64.3071V37.6434H67.364C67.0237 33.1999 65.2607 29.1564 62.5206 25.9629L60.3623 28.1212L58.1445 25.9033L60.3027 23.7451C57.1093 21.005 53.0642 19.242 48.6223 18.9017V21.9586H45.4854V18.9017C41.0419 19.242 36.9983 21.005 33.8049 23.7451L35.9631 25.9033L33.7453 28.1212L31.5871 25.9629C28.847 29.1564 27.084 33.2015 26.7437 37.6434H29.8006V40.7803H26.7437C26.913 42.9872 27.4197 45.0983 28.2368 47.0542H39.3699C39.7573 45.1517 40.8536 43.5204 42.3484 42.3896Z" fill="white"/>
<path d="M77.4998 26.6421C76.278 23.7028 76.9258 20.431 79.1185 18.2382L80.3262 17.0289L69.2371 5.93981L68.0278 7.14754C65.8366 9.34027 62.5648 9.98961 59.6929 8.79757C56.752 7.58201 54.8965 4.81051 54.8965 1.70807V0H39.2118V1.70807C39.2118 4.81208 37.3563 7.58201 34.4844 8.7662C31.5451 9.98648 28.2732 9.3387 26.0805 7.14754L24.8712 5.93981L13.7821 17.0289L14.9898 18.2382C17.1826 20.431 17.8319 23.7028 16.6399 26.5731C15.4243 29.514 12.6528 31.3695 9.55035 31.3695H7.84229V47.0542H9.55035C12.6544 47.0542 15.4243 48.9097 16.6085 51.7816C17.8303 54.7209 17.1826 57.9928 14.9898 60.1855L13.7821 61.3948L24.8712 72.4839L26.0805 71.2762C28.2732 69.085 31.5451 68.4341 34.4154 69.6262C37.3563 70.8417 39.2118 73.6132 39.2118 76.7157V78.4237H42.3487V68.6035C28.1493 66.3371 17.2531 54.0387 17.2531 39.2119C17.2531 22.779 30.6212 9.41085 47.0541 9.41085C63.4871 9.41085 76.8552 22.779 76.8552 39.2119C76.8552 54.0387 65.959 66.3371 51.7596 68.6035V78.4237H54.8965V76.7157C54.8965 73.6116 56.752 70.8417 59.6239 69.6575C62.5648 68.4372 65.8351 69.0835 68.0278 71.2762L69.2371 72.4839L80.3262 61.3948L79.1185 60.1855C76.9258 57.9928 76.2764 54.7209 77.4684 51.8506C78.684 48.9097 81.4555 47.0542 84.5579 47.0542H86.266V31.3695H84.5579C81.4555 31.3695 78.684 29.514 77.4998 26.6421ZM12.5477 40.7803C11.6819 40.7803 10.9792 40.0777 10.9792 39.2119C10.9792 38.3461 11.6819 37.6434 12.5477 37.6434C13.4135 37.6434 14.1162 38.3461 14.1162 39.2119C14.1162 40.0777 13.4135 40.7803 12.5477 40.7803ZM21.546 62.5021C21.8519 62.1963 22.2534 62.0426 22.655 62.0426C23.0565 62.0426 23.458 62.1963 23.7639 62.5021C24.3771 63.1154 24.3771 64.1083 23.7639 64.72C23.458 65.0258 23.0565 65.1795 22.655 65.1795C22.2534 65.1795 21.8519 65.0258 21.546 64.72C20.9328 64.1083 20.9328 63.1154 21.546 62.5021ZM23.7639 15.9216C23.458 16.2274 23.0565 16.3811 22.655 16.3811C22.2534 16.3811 21.8519 16.2274 21.546 15.9216C20.9328 15.3083 20.9328 14.3155 21.546 13.7038C21.8519 13.3979 22.2534 13.2442 22.655 13.2442C23.0565 13.2442 23.458 13.3979 23.7639 13.7038C24.3756 14.3155 24.3756 15.3083 23.7639 15.9216ZM47.0541 6.2739C46.1884 6.2739 45.4857 5.57122 45.4857 4.70542C45.4857 3.83963 46.1884 3.13695 47.0541 3.13695C47.9199 3.13695 48.6226 3.83963 48.6226 4.70542C48.6226 5.57122 47.9199 6.2739 47.0541 6.2739ZM72.5622 15.9216C72.2564 16.2274 71.8549 16.3811 71.4533 16.3811C71.0518 16.3811 70.6503 16.2274 70.3444 15.9216C69.7312 15.3083 69.7312 14.3155 70.3444 13.7038C70.6503 13.3979 71.0518 13.2442 71.4533 13.2442C71.8549 13.2442 72.2564 13.3979 72.5622 13.7038C73.1755 14.3155 73.1755 15.3083 72.5622 15.9216ZM72.5622 64.72C72.2564 65.0258 71.8549 65.1795 71.4533 65.1795C71.0518 65.1795 70.6503 65.0258 70.3444 64.72C69.7312 64.1067 69.7312 63.1138 70.3444 62.5021C70.6503 62.1963 71.0518 62.0426 71.4533 62.0426C71.8549 62.0426 72.2564 62.1963 72.5622 62.5021C73.1755 63.1154 73.1755 64.1083 72.5622 64.72ZM81.5606 40.7803C80.6948 40.7803 79.9921 40.0777 79.9921 39.2119C79.9921 38.3461 80.6948 37.6434 81.5606 37.6434C82.4264 37.6434 83.1291 38.3461 83.1291 39.2119C83.1291 40.0777 82.4264 40.7803 81.5606 40.7803Z" fill="white"/>
<path d="M45.4858 68.9329V90.9715H48.6228V68.9329C48.1005 68.9611 47.5845 69.0129 47.0543 69.0129C46.5242 69.0129 46.0081 68.9611 45.4858 68.9329Z" fill="white"/>
<path d="M73.7183 39.2119C73.7183 24.509 61.7571 12.5478 47.0542 12.5478C32.3513 12.5478 20.3901 24.509 20.3901 39.2119C20.3901 53.9147 32.3513 65.8759 47.0542 65.8759C61.7571 65.8759 73.7183 53.9147 73.7183 39.2119ZM23.5271 39.2119C23.5271 26.239 34.0814 15.6847 47.0542 15.6847C60.0271 15.6847 70.5813 26.239 70.5813 39.2119C70.5813 52.1847 60.0271 62.739 47.0542 62.739C34.0814 62.739 23.5271 52.1847 23.5271 39.2119Z" fill="white"/>
</svg>
