<svg width="127" height="36" viewBox="0 0 127 36" fill="none" xmlns="http://www.w3.org/2000/svg">
<g clip-path="url(#clip0_1875_1668)">
<path d="M20.3994 7.79998C20.3994 7.13723 20.9367 6.59998 21.5994 6.59998C22.2622 6.59998 22.7994 7.13723 22.7994 7.79998C22.7994 8.46272 22.2622 8.99998 21.5994 8.99998C20.9367 8.99998 20.3994 8.46272 20.3994 7.79998Z" fill="white"/>
<path fill-rule="evenodd" clip-rule="evenodd" d="M11.4002 0C10.7375 0 10.2002 0.537258 10.2002 1.2V18C10.2002 18.6627 10.7375 19.2 11.4002 19.2H28.2002C28.8629 19.2 29.4002 18.6627 29.4002 18V1.2C29.4002 0.537258 28.8629 0 28.2002 0H11.4002ZM19.8004 4.20001C16.8181 4.20001 14.4004 6.61767 14.4004 9.60001C14.4004 12.5823 16.8181 15 19.8004 15C22.7827 15 25.2004 12.5823 25.2004 9.60001C25.2004 6.61767 22.7827 4.20001 19.8004 4.20001ZM20.3994 7.79998C20.3994 7.13723 20.9367 6.59998 21.5994 6.59998C22.2622 6.59998 22.7994 7.13723 22.7994 7.79998C22.7994 8.46272 22.2622 8.99998 21.5994 8.99998C20.9367 8.99998 20.3994 8.46272 20.3994 7.79998Z" fill="white"/>
<path d="M0 13.7928C0 13.1341 0.533978 12.6001 1.19267 12.6001H5.40733C6.06602 12.6001 6.6 13.1341 6.6 13.7928V18.0074C6.6 18.6661 6.06602 19.2001 5.40733 19.2001H1.19267C0.533976 19.2001 0 18.6661 0 18.0074V13.7928Z" fill="white"/>
<path d="M10.2002 23.9928C10.2002 23.3341 10.7342 22.8 11.3929 22.8H15.6075C16.2662 22.8 16.8002 23.3341 16.8002 23.9928V28.2073C16.8002 28.866 16.2662 29.4 15.6075 29.4H11.3929C10.7342 29.4 10.2002 28.866 10.2002 28.2073V23.9928Z" fill="white"/>
<path d="M46.9385 34.4195C45.7143 35.4732 43.914 36 41.5376 36C39.1672 36 37.3669 35.4732 36.1367 34.4195C34.9064 33.36 34.2913 31.6853 34.2913 29.3956C34.2913 27.1058 34.9064 25.4342 36.1367 24.3806C37.3669 23.3269 39.1672 22.8 41.5376 22.8C43.914 22.8 45.7143 23.3269 46.9385 24.3806C48.1687 25.4342 48.7838 27.1058 48.7838 29.3956C48.7838 31.6853 48.1687 33.36 46.9385 34.4195ZM44.4811 26.2435C43.875 25.5371 42.8938 25.184 41.5376 25.184C40.1874 25.184 39.2062 25.5371 38.5941 26.2435C37.988 26.9498 37.6849 28.0035 37.6849 29.4044C37.6849 30.7995 37.988 31.8502 38.5941 32.5565C39.2062 33.257 40.1874 33.6073 41.5376 33.6073C42.8938 33.6073 43.875 33.257 44.4811 32.5565C45.0872 31.8502 45.3903 30.7995 45.3903 29.4044C45.3903 28.0035 45.0872 26.9498 44.4811 26.2435Z" fill="white"/>
<path d="M77.2068 34.4195C75.9826 35.4732 74.1823 36 71.8059 36C69.4355 36 67.6351 35.4732 66.4049 34.4195C65.1747 33.36 64.5596 31.6853 64.5596 29.3956C64.5596 27.1058 65.1747 25.4342 66.4049 24.3806C67.6351 23.3269 69.4355 22.8 71.8059 22.8C74.1823 22.8 75.9826 23.3269 77.2068 24.3806C78.437 25.4342 79.0521 27.1058 79.0521 29.3956C79.0521 31.6853 78.437 33.36 77.2068 34.4195ZM74.7494 26.2435C74.1433 25.5371 73.1621 25.184 71.8059 25.184C70.4556 25.184 69.4745 25.5371 68.8623 26.2435C68.2562 26.9498 67.9532 28.0035 67.9532 29.4044C67.9532 30.7995 68.2562 31.8502 68.8623 32.5565C69.4745 33.257 70.4556 33.6073 71.8059 33.6073C73.1621 33.6073 74.1433 33.257 74.7494 32.5565C75.3555 31.8502 75.6585 30.7995 75.6585 29.4044C75.6585 28.0035 75.3555 26.9498 74.7494 26.2435Z" fill="white"/>
<path d="M100.074 34.3887C98.9575 33.3145 98.3994 31.6546 98.3994 29.4091C98.3994 27.1575 98.9575 25.4947 100.074 24.4205C101.196 23.3402 102.876 22.8 105.114 22.8H107.132C108.501 22.8 109.711 23.1582 110.761 23.8743C111.816 24.5904 112.344 25.5705 112.344 26.8146C112.344 27.1727 112.239 27.4306 112.028 27.5884C111.816 27.7401 111.611 27.816 111.412 27.816H110.335C109.78 27.816 109.349 27.4822 109.041 26.8146C108.595 25.8557 107.853 25.3764 106.815 25.3764H105.204C103.883 25.3764 102.987 25.6615 102.517 26.232C102.046 26.8025 101.811 27.8585 101.811 29.4C101.811 30.9415 102.046 32.0005 102.517 32.5771C102.987 33.1476 103.883 33.4328 105.204 33.4328H107.005C108.043 33.4328 108.782 32.9534 109.222 31.9945C109.53 31.3208 109.964 30.984 110.525 30.984H111.602C111.886 30.984 112.109 31.0903 112.272 31.3027C112.441 31.5151 112.525 31.7456 112.525 31.9945C112.525 33.2386 112 34.2187 110.951 34.9349C109.901 35.645 108.691 36 107.322 36H105.114C102.876 36 101.196 35.4629 100.074 34.3887Z" fill="white"/>
<path d="M113.27 32.5863C113.27 32.2282 113.375 31.9733 113.587 31.8216C113.798 31.6638 114.003 31.5849 114.202 31.5849H115.279C115.822 31.5849 116.235 31.8823 116.519 32.4771C116.802 33.0718 117.439 33.3691 118.428 33.3691L121.595 33.4328C122.657 33.4328 123.188 33.0838 123.188 32.3859C123.188 31.8579 122.539 31.4423 121.242 31.1388C120.663 30.9993 120.024 30.8626 119.324 30.7291C118.624 30.5895 117.927 30.4165 117.233 30.2102C116.546 30.0038 115.912 29.7611 115.333 29.4819C114.754 29.2027 114.283 28.8204 113.921 28.3349C113.565 27.8433 113.388 27.2667 113.388 26.6052C113.388 25.3854 113.819 24.4477 114.682 23.7923C115.544 23.1307 117.028 22.8 119.134 22.8L121.432 22.8547C122.669 22.8547 123.782 23.1763 124.771 23.8196C125.767 24.4568 126.265 25.255 126.265 26.2139C126.265 26.5719 126.159 26.8298 125.948 26.9876C125.737 27.1454 125.535 27.2243 125.342 27.2243H124.265C123.722 27.2243 123.309 26.9269 123.025 26.3321C122.741 25.7313 122.105 25.431 121.116 25.431L118.392 25.3764C117.33 25.3764 116.799 25.7253 116.799 26.4233C116.799 26.8056 117.134 27.1181 117.804 27.3608C118.479 27.6036 119.294 27.819 120.247 28.0072C121.206 28.1892 122.168 28.4107 123.134 28.6717C124.099 28.9327 124.916 29.3636 125.586 29.9644C126.262 30.5592 126.599 31.3026 126.599 32.1947C126.599 33.4146 126.165 34.3553 125.296 35.0168C124.434 35.6723 122.953 36 120.853 36L118.111 35.9454C116.874 35.9454 115.758 35.6267 114.763 34.9895C113.768 34.3462 113.27 33.5452 113.27 32.5863Z" fill="white"/>
<path d="M93.5994 35.1531V23.6745C93.5994 23.4351 93.6885 23.2296 93.8668 23.0577C94.045 22.8859 94.2583 22.8 94.5066 22.8H96.2827C96.5437 22.8 96.7602 22.8859 96.9321 23.0577C97.1103 23.2296 97.1994 23.4351 97.1994 23.6745V35.1348C97.1994 35.3741 97.1071 35.5796 96.9225 35.7515C96.7442 35.9171 96.531 36 96.2827 36H94.5066C94.2583 36 94.045 35.9202 93.8668 35.7607C93.6885 35.595 93.5994 35.3925 93.5994 35.1531Z" fill="white"/>
<path d="M79.1994 24.5397V23.6745C79.1994 23.4229 79.2808 23.2142 79.4437 23.0485C79.6065 22.8828 79.8116 22.8 80.0589 22.8H91.5399C91.7872 22.8 91.9923 22.8828 92.1551 23.0485C92.318 23.2142 92.3994 23.4229 92.3994 23.6745V24.5397C92.3994 24.7913 92.318 25.0001 92.1551 25.1658C91.9923 25.3253 91.7872 25.4051 91.5399 25.4051H87.5048V35.1531C87.5048 35.3925 87.4204 35.595 87.2515 35.7607C87.0887 35.9202 86.8896 36 86.6544 36H84.9445C84.7092 36 84.5072 35.9202 84.3383 35.7607C84.1754 35.595 84.094 35.3925 84.094 35.1531V25.4051H80.0589C79.8116 25.4051 79.6065 25.3253 79.4437 25.1658C79.2808 25.0001 79.1994 24.7913 79.1994 24.5397Z" fill="white"/>
<path d="M50.3994 23.6745C50.3994 23.4351 50.4824 23.2296 50.6483 23.0577C50.8142 22.8859 51.0128 22.8 51.2439 22.8H58.4705C60.2424 22.8 61.549 23.3278 62.3905 24.3834C62.8587 24.9663 63.0928 25.7118 63.0928 26.6201C63.0928 27.5222 62.6927 28.3107 61.8927 28.9858C63.0305 29.6178 63.5994 30.5997 63.5994 31.9314C63.5994 33.263 63.1431 34.2757 62.2305 34.9691C61.3239 35.6564 60.2098 36 58.8883 36H51.2439C51.0128 36 50.8142 35.9171 50.6483 35.7515C50.4824 35.5796 50.3994 35.3741 50.3994 35.1348V23.6745ZM53.7505 33.5146H58.835C59.2913 33.5146 59.6409 33.3736 59.8839 33.0913C60.1268 32.809 60.2483 32.4223 60.2483 31.9314C60.2483 31.4404 60.1268 31.0538 59.8839 30.7715C59.6409 30.4892 59.2913 30.3482 58.835 30.3482H53.7505V33.5146ZM53.7505 27.9272H58.5061C58.8794 27.9272 59.1787 27.8137 59.4039 27.5866C59.629 27.3534 59.7416 27.0312 59.7416 26.6201C59.7416 26.2028 59.629 25.8776 59.4039 25.6444C59.1787 25.4112 58.8794 25.2945 58.5061 25.2945H53.7505V27.9272Z" fill="white"/>
<path d="M33.5994 35.6042C33.5994 35.868 33.4487 36.0001 33.1473 36.0001H31.0197C30.7951 36.0001 30.5469 35.9171 30.275 35.7515C30.0091 35.5796 29.8052 35.3741 29.6633 35.1348L28.1563 32.6862C27.5357 31.6798 26.7852 31.1767 25.9046 31.1767H23.7415V35.1348C23.7415 35.3741 23.6588 35.5796 23.4933 35.7515C23.3337 35.9171 23.1387 36.0001 22.9082 36.0001H21.2416C21.0111 36.0001 20.8131 35.9171 20.6476 35.7515C20.4822 35.5796 20.3994 35.3741 20.3994 35.1348V24.0974C20.3994 24.0826 20.3994 24.0646 20.3994 24.0439C20.3994 23.3559 20.9338 22.7992 21.5913 22.8C21.6149 22.8 21.6352 22.8 21.6515 22.8H28.5375C29.8909 22.8 30.999 23.1774 31.8619 23.9322C32.7306 24.6871 33.165 25.7058 33.165 26.9884C33.165 28.7742 32.051 29.8941 29.8229 30.3482C30.1775 30.4832 30.5055 30.7164 30.8069 31.0478C31.1083 31.373 31.4541 31.8485 31.8441 32.4745L33.4576 35.1348C33.5521 35.3066 33.5994 35.463 33.5994 35.6042ZM23.7415 28.5717H27.518C28.1267 28.5717 28.6616 28.4459 29.1226 28.1943C29.5895 27.9427 29.8229 27.5407 29.8229 26.9884C29.8229 26.4361 29.5895 26.0341 29.1226 25.7825C28.6616 25.5309 28.1267 25.4051 27.518 25.4051H23.7415V28.5717Z" fill="white"/>
<path d="M33 17.9414V1.27197C33 0.923849 33.1255 0.624826 33.3764 0.374895C33.6273 0.124965 33.934 0 34.2965 0H44.9335C50.5564 0 53.3678 2.49038 53.3678 7.47113C53.3678 12.443 50.5564 14.9289 44.9335 14.9289H38.2558V17.9414C38.2558 18.2895 38.1256 18.5886 37.8654 18.8385C37.6145 19.0795 37.3078 19.2 36.9453 19.2H34.3244C33.9619 19.2 33.6506 19.0795 33.3903 18.8385C33.1301 18.5886 33 18.2895 33 17.9414ZM38.2558 11.1397H43.3442C44.9056 11.1397 46.0906 10.8898 46.8992 10.39C47.7078 9.88117 48.1121 8.90823 48.1121 7.47113C48.1121 6.0251 47.7078 5.05216 46.8992 4.5523C46.0906 4.04351 44.9056 3.78912 43.3442 3.78912H38.2558V11.1397Z" fill="white"/>
<path d="M55.9469 17.9682V1.27197C55.9469 0.923849 56.077 0.624826 56.3373 0.374895C56.5975 0.124965 56.9088 0 57.2713 0H59.8643C60.2454 0 60.5614 0.124965 60.8123 0.374895C61.0726 0.624826 61.2027 0.923849 61.2027 1.27197V17.9414C61.2027 18.2895 61.0679 18.5886 60.7984 18.8385C60.5382 19.0795 60.2268 19.2 59.8643 19.2H57.2713C56.9088 19.2 56.5975 19.084 56.3373 18.8519C56.077 18.6109 55.9469 18.3163 55.9469 17.9682Z" fill="white"/>
<path d="M64.2697 19.2C63.805 19.2 63.5448 18.9992 63.489 18.5975C63.489 18.4011 63.5866 18.1824 63.7818 17.9414L70.808 9.33222L64.1861 1.27197C63.9909 1.03989 63.8933 0.821199 63.8933 0.6159C63.8933 0.2053 64.1489 0 64.6601 0H67.6574C68.5868 0 69.4 0.423989 70.097 1.27197L73.9169 5.93138L77.7367 1.27197C78.4245 0.432915 79.2377 0.00892608 80.1764 0H83.1737C83.6849 0 83.9405 0.2053 83.9405 0.6159C83.9405 0.812273 83.8429 1.03096 83.6477 1.27197L77.0257 9.33222L84.052 17.9414C84.2472 18.1735 84.3448 18.3609 84.3448 18.5038C84.3448 18.6466 84.3262 18.7492 84.289 18.8117C84.1868 19.0706 83.9451 19.2 83.5641 19.2H80.5946C79.6652 19.2 78.8567 18.7805 78.1689 17.9414L73.9169 12.7331L69.6649 17.9414C68.9771 18.7805 68.1685 19.2 67.2391 19.2H64.2697Z" fill="white"/>
<path d="M86.6172 17.9146V1.24519C86.6172 0.897071 86.7473 0.602511 87.0075 0.361506C87.2677 0.120502 87.5791 0 87.9416 0H104.016C104.378 0 104.685 0.124965 104.936 0.374895C105.196 0.624826 105.326 0.923849 105.326 1.27197V2.53054C105.326 2.87866 105.196 3.17769 104.936 3.42762C104.685 3.66862 104.378 3.78912 104.016 3.78912H91.8729V7.68536H102.329C102.691 7.68536 102.998 7.81032 103.249 8.06025C103.509 8.30126 103.639 8.59582 103.639 8.94393V10.2025C103.639 10.5506 103.509 10.8497 103.249 11.0996C102.998 11.3406 102.691 11.4611 102.329 11.4611H91.8729V15.4109H103.988C104.341 15.4109 104.643 15.5314 104.894 15.7724C105.145 16.0134 105.27 16.3079 105.27 16.6561V17.9414C105.27 18.2895 105.14 18.5886 104.88 18.8385C104.62 19.0795 104.308 19.2 103.946 19.2H87.9416C87.5791 19.2 87.2677 19.0795 87.0075 18.8385C86.7473 18.5886 86.6172 18.2806 86.6172 17.9146Z" fill="white"/>
<path d="M107.891 17.9682V1.29874C107.891 0.932775 108.021 0.624826 108.281 0.374895C108.542 0.124965 108.853 0 109.216 0H111.836C112.199 0 112.506 0.124965 112.757 0.374895C113.017 0.624826 113.147 0.932775 113.147 1.29874V15.4109H125.29C125.652 15.4109 125.959 15.5358 126.21 15.7858C126.47 16.0357 126.6 16.3347 126.6 16.6828V17.9414C126.6 18.2895 126.47 18.5886 126.21 18.8385C125.959 19.0795 125.652 19.2 125.29 19.2H109.216C108.853 19.2 108.542 19.084 108.281 18.8519C108.021 18.6109 107.891 18.3163 107.891 17.9682Z" fill="white"/>
</g>
<defs>
<clipPath id="clip0_1875_1668">
<rect width="127" height="36" fill="white"/>
</clipPath>
</defs>
</svg>
