<svg width="122" height="61" viewBox="0 0 122 61" fill="none" xmlns="http://www.w3.org/2000/svg">
<path d="M44.6765 2.83902C44.6765 3.12462 44.6408 3.37451 44.5694 3.58871C44.498 3.80291 44.4008 3.98731 44.2779 4.14201C44.1549 4.29671 44.0121 4.42171 43.8495 4.51691C43.6868 4.61211 43.5182 4.68352 43.3437 4.73112V4.75491C43.5579 4.79461 43.7582 4.86992 43.9446 4.98102C44.1311 5.09212 44.2937 5.23091 44.4326 5.39751C44.5714 5.56411 44.6825 5.76042 44.7658 5.98652C44.8491 6.21272 44.8907 6.46062 44.8907 6.73032C44.8907 7.05562 44.8352 7.35312 44.7241 7.62282C44.613 7.89252 44.4405 8.12661 44.2064 8.32491C43.9724 8.52321 43.6769 8.67792 43.3199 8.78902C42.9629 8.90012 42.5385 8.95562 42.0466 8.95562H40.3687V0.744614H41.9514C42.4353 0.744614 42.8499 0.794218 43.195 0.893318C43.5401 0.992518 43.8237 1.13332 44.0458 1.31582C44.2679 1.49832 44.4286 1.71842 44.5278 1.97622C44.6269 2.23412 44.6765 2.52172 44.6765 2.83902ZM43.6293 2.87472C43.6293 2.49392 43.4944 2.18052 43.2247 1.93462C42.955 1.68872 42.5305 1.56572 41.9514 1.56572H41.404V4.39792H41.9395C42.4948 4.39792 42.9153 4.26302 43.2009 3.99332C43.4865 3.72362 43.6293 3.35072 43.6293 2.87472ZM43.784 6.65892C43.784 6.21462 43.6392 5.86361 43.3497 5.60571C43.0601 5.34791 42.6456 5.21902 42.1061 5.21902H41.404V8.09882H42.0466C42.6575 8.09882 43.0998 7.97782 43.3735 7.73582C43.6472 7.49392 43.784 7.13492 43.784 6.65892ZM50.1624 8.95562H49.2818V8.31302H49.258C49.2342 8.36062 49.1826 8.43002 49.1033 8.52122C49.024 8.61252 48.9228 8.69972 48.7999 8.78302C48.6769 8.86632 48.5281 8.93972 48.3536 9.00322C48.1791 9.06672 47.9847 9.09842 47.7705 9.09842C47.5166 9.09842 47.2886 9.06072 47.0863 8.98542C46.884 8.91002 46.7114 8.78901 46.5686 8.62241C46.4258 8.45581 46.3167 8.23962 46.2414 7.97382C46.166 7.70812 46.1283 7.38082 46.1283 6.99212V3.24361H47.0922V6.92072C47.0922 7.39672 47.1696 7.73582 47.3243 7.93822C47.479 8.14042 47.7189 8.24162 48.0442 8.24162C48.3219 8.24162 48.5559 8.17222 48.7463 8.03332C48.9367 7.89452 49.0874 7.75772 49.1985 7.62282V3.24361H50.1624V8.95562ZM54.7558 8.95562V5.27852C54.7558 4.79462 54.6745 4.44751 54.5119 4.23721C54.3492 4.02701 54.1013 3.92191 53.7681 3.92191C53.4825 3.92191 53.2445 3.99332 53.0541 4.13612C52.8637 4.27892 52.713 4.41772 52.6019 4.55262V8.95562H51.638V3.24361H52.5186V3.88622H52.5424C52.5662 3.83862 52.6178 3.76922 52.6971 3.67792C52.7764 3.58672 52.8796 3.49941 53.0065 3.41611C53.1334 3.33281 53.2842 3.25951 53.4587 3.19601C53.6332 3.13251 53.8316 3.10081 54.0537 3.10081C54.3076 3.10081 54.5376 3.13851 54.7439 3.21381C54.9502 3.28921 55.1247 3.41021 55.2675 3.57681C55.4103 3.74341 55.5214 3.95962 55.6007 4.22532C55.68 4.49112 55.7197 4.81842 55.7197 5.20712V8.95562H54.7558ZM56.8978 6.18291C56.8978 5.60381 56.9732 5.11982 57.1239 4.73112C57.2746 4.34242 57.469 4.02902 57.707 3.79102C57.945 3.55302 58.2147 3.38442 58.5162 3.28522C58.8177 3.18612 59.1191 3.13651 59.4206 3.13651C59.6031 3.13651 59.7617 3.15042 59.8966 3.17822C60.0315 3.20592 60.1425 3.23962 60.2298 3.27932V0.54232L61.1937 0.435219V8.95562H60.3131V8.34872H60.2893C60.2655 8.39632 60.2219 8.46171 60.1584 8.54501C60.0949 8.62831 60.0077 8.71161 59.8966 8.79491C59.7855 8.87821 59.6467 8.94962 59.4801 9.00922C59.3135 9.06872 59.1191 9.09842 58.897 9.09842C58.6273 9.09842 58.3714 9.04491 58.1295 8.93771C57.8875 8.83061 57.6753 8.66012 57.4928 8.42602C57.3103 8.19202 57.1656 7.89051 57.0585 7.52161C56.9514 7.15271 56.8978 6.70651 56.8978 6.18291ZM59.1588 8.24162C59.3095 8.24162 59.4444 8.22181 59.5634 8.18211C59.6824 8.14241 59.7855 8.09282 59.8728 8.03332C59.9601 7.97382 60.0335 7.91242 60.093 7.84892C60.1525 7.78542 60.1981 7.72992 60.2298 7.68232V4.15992C60.1425 4.10442 60.0414 4.05681 59.9264 4.01711C59.8113 3.97741 59.6665 3.95762 59.492 3.95762C59.2699 3.95762 59.0616 3.99532 58.8673 4.07062C58.6729 4.14602 58.5043 4.27102 58.3615 4.44552C58.2187 4.62002 58.1057 4.84612 58.0224 5.12382C57.9391 5.40152 57.8974 5.74262 57.8974 6.14722C57.8974 6.54392 57.9311 6.87512 57.9986 7.14082C58.066 7.40662 58.1592 7.62082 58.2782 7.78342C58.3972 7.94612 58.5321 8.06311 58.6828 8.13451C58.8335 8.20591 58.9922 8.24162 59.1588 8.24162ZM66.3345 5.17142C66.3345 5.41732 66.3266 5.62951 66.3107 5.80801C66.2948 5.98651 66.279 6.14321 66.2631 6.27811H63.3476C63.3793 6.95241 63.5241 7.44832 63.782 7.76562C64.0398 8.08292 64.4107 8.24162 64.8946 8.24162C65.0612 8.24162 65.2119 8.22181 65.3468 8.18211C65.4817 8.14241 65.5987 8.09481 65.6979 8.03931C65.797 7.98381 65.8803 7.92822 65.9478 7.87272C66.0152 7.81722 66.0648 7.77351 66.0965 7.74181L66.4535 8.42012C66.4138 8.45982 66.3543 8.51731 66.275 8.59261C66.1957 8.66801 66.0886 8.74342 65.9537 8.81882C65.8188 8.89412 65.6522 8.95961 65.4539 9.01511C65.2556 9.07061 65.0215 9.09842 64.7518 9.09842C64.3948 9.09842 64.0715 9.03891 63.782 8.91991C63.4924 8.80091 63.2465 8.61642 63.0442 8.36652C62.8419 8.11662 62.6852 7.79932 62.5741 7.41452C62.463 7.02982 62.4075 6.56771 62.4075 6.02821C62.4075 5.52051 62.465 5.08212 62.5801 4.71322C62.6951 4.34432 62.8518 4.04092 63.0501 3.80292C63.2484 3.56492 63.4785 3.38842 63.7403 3.27332C64.0021 3.15832 64.2837 3.10081 64.5852 3.10081C65.1326 3.10081 65.561 3.27332 65.8704 3.61842C66.1798 3.96352 66.3345 4.48122 66.3345 5.17142ZM64.5257 3.88622C64.1846 3.88622 63.9109 4.02901 63.7046 4.31461C63.4983 4.60021 63.3793 5.01272 63.3476 5.55222H65.4301C65.438 5.51252 65.444 5.45502 65.448 5.37962C65.4519 5.30432 65.4539 5.22302 65.4539 5.13572C65.4539 4.73902 65.3746 4.43162 65.2159 4.21342C65.0572 3.99532 64.8272 3.88622 64.5257 3.88622ZM70.083 4.39792C70.0195 4.32652 69.9045 4.22932 69.7379 4.10632C69.5713 3.98342 69.3531 3.92191 69.0834 3.92191C68.8295 3.92191 68.6352 3.98142 68.5003 4.10042C68.3654 4.21942 68.298 4.36222 68.298 4.52882C68.298 4.74302 68.3595 4.91952 68.4825 5.05832C68.6054 5.19722 68.7938 5.34592 69.0477 5.50462L69.4047 5.71882C69.7934 5.94892 70.0989 6.19682 70.321 6.46252C70.5431 6.72832 70.6542 7.07141 70.6542 7.49191C70.6542 7.94411 70.4975 8.32492 70.1842 8.63432C69.8708 8.94372 69.4206 9.09842 68.8335 9.09842C68.6034 9.09842 68.4011 9.07462 68.2266 9.02702C68.0521 8.97942 67.8993 8.92392 67.7685 8.86042C67.6376 8.79692 67.5285 8.72751 67.4412 8.65221C67.3539 8.57681 67.2825 8.50742 67.227 8.44392L67.6911 7.68232C67.7387 7.72992 67.7962 7.78542 67.8637 7.84892C67.9311 7.91242 68.0124 7.97382 68.1076 8.03332C68.2028 8.09282 68.3099 8.14241 68.4289 8.18211C68.5479 8.22181 68.6867 8.24162 68.8454 8.24162C69.131 8.24162 69.3492 8.17812 69.4999 8.05122C69.6506 7.92432 69.726 7.76962 69.726 7.58712C69.726 7.45222 69.7082 7.33522 69.6725 7.23602C69.6368 7.13692 69.5832 7.04762 69.5118 6.96832C69.4404 6.88902 69.3531 6.81362 69.25 6.74222C69.1469 6.67082 69.0279 6.59152 68.893 6.50422L68.536 6.27811C68.179 6.04801 67.8993 5.80612 67.6971 5.55222C67.4948 5.29832 67.3936 4.97312 67.3936 4.57642C67.3936 4.36222 67.4353 4.16582 67.5186 3.98732C67.6019 3.80892 67.7189 3.65422 67.8696 3.52322C68.0203 3.39232 68.1969 3.28921 68.3992 3.21381C68.6015 3.13851 68.8176 3.10081 69.0477 3.10081C69.2698 3.10081 69.4602 3.12261 69.6189 3.16621C69.7776 3.20991 69.9144 3.26542 70.0295 3.33282C70.1445 3.40032 70.2397 3.46772 70.3151 3.53512C70.3904 3.60262 70.4519 3.66012 70.4995 3.70772L70.083 4.39792ZM74.7835 8.95562V5.27852C74.7835 4.81042 74.7161 4.47331 74.5812 4.26701C74.4463 4.06071 74.2282 3.95762 73.9267 3.95762C73.768 3.95762 73.6272 3.97741 73.5043 4.01711C73.3813 4.05681 73.2722 4.10632 73.177 4.16582C73.0818 4.22532 72.9985 4.29081 72.9271 4.36221C72.8557 4.43361 72.7962 4.49712 72.7486 4.55262V8.95562H71.7847V3.24361H72.6653V3.88622H72.6891C72.7288 3.82272 72.7883 3.74541 72.8676 3.65421C72.9469 3.56291 73.0461 3.47562 73.1651 3.39232C73.2841 3.30902 73.4229 3.23962 73.5816 3.18412C73.7403 3.12862 73.9188 3.10081 74.1171 3.10081C74.7676 3.10081 75.2278 3.35472 75.4975 3.86242C75.553 3.78312 75.6284 3.69781 75.7236 3.60651C75.8188 3.51531 75.9299 3.43201 76.0568 3.35661C76.1837 3.28131 76.3265 3.21982 76.4852 3.17222C76.6439 3.12462 76.8184 3.10081 77.0088 3.10081C78.1671 3.10081 78.7462 3.77512 78.7462 5.12382V8.95562H77.7823V5.27852C77.7823 4.81042 77.699 4.47331 77.5324 4.26701C77.3658 4.06071 77.1199 3.95762 76.7946 3.95762C76.5249 3.95762 76.3008 4.02312 76.1223 4.15392C75.9438 4.28492 75.8029 4.40982 75.6998 4.52882C75.7157 4.61612 75.7276 4.70932 75.7355 4.80852C75.7434 4.90762 75.7474 5.01272 75.7474 5.12382V8.95562H74.7835ZM81.15 8.95562H80.1861V3.24361H81.15V8.95562ZM80.674 1.86322C80.4757 1.86322 80.317 1.79971 80.198 1.67281C80.079 1.54591 80.0195 1.37932 80.0195 1.17302C80.0195 0.974719 80.079 0.81202 80.198 0.68512C80.317 0.55822 80.4757 0.494713 80.674 0.494713C80.8644 0.494713 81.0191 0.55822 81.1381 0.68512C81.2571 0.81202 81.3166 0.974719 81.3166 1.17302C81.3166 1.37932 81.2571 1.54591 81.1381 1.67281C81.0191 1.79971 80.8644 1.86322 80.674 1.86322ZM85.7434 8.95562V5.27852C85.7434 4.79462 85.6621 4.44751 85.4995 4.23721C85.3368 4.02701 85.0889 3.92191 84.7557 3.92191C84.4701 3.92191 84.2321 3.99332 84.0417 4.13612C83.8513 4.27892 83.7006 4.41772 83.5895 4.55262V8.95562H82.6256V3.24361H83.5062V3.88622H83.53C83.5538 3.83862 83.6054 3.76922 83.6847 3.67792C83.764 3.58672 83.8672 3.49941 83.9941 3.41611C84.121 3.33281 84.2718 3.25951 84.4463 3.19601C84.6208 3.13251 84.8192 3.10081 85.0413 3.10081C85.2952 3.10081 85.5252 3.13851 85.7315 3.21381C85.9378 3.28921 86.1123 3.41021 86.2551 3.57681C86.3979 3.74341 86.509 3.95962 86.5883 4.22532C86.6676 4.49112 86.7073 4.81842 86.7073 5.20712V8.95562H85.7434ZM89.1111 8.95562H88.1472V3.24361H89.1111V8.95562ZM88.6351 1.86322C88.4368 1.86322 88.2781 1.79971 88.1591 1.67281C88.0401 1.54591 87.9806 1.37932 87.9806 1.17302C87.9806 0.974719 88.0401 0.81202 88.1591 0.68512C88.2781 0.55822 88.4368 0.494713 88.6351 0.494713C88.8255 0.494713 88.9802 0.55822 89.0992 0.68512C89.2182 0.81202 89.2777 0.974719 89.2777 1.17302C89.2777 1.37932 89.2182 1.54591 89.0992 1.67281C88.9802 1.79971 88.8255 1.86322 88.6351 1.86322ZM93.05 4.39792C92.9865 4.32652 92.8715 4.22932 92.7049 4.10632C92.5383 3.98342 92.3201 3.92191 92.0504 3.92191C91.7965 3.92191 91.6022 3.98142 91.4673 4.10042C91.3324 4.21942 91.265 4.36222 91.265 4.52882C91.265 4.74302 91.3265 4.91952 91.4495 5.05832C91.5724 5.19722 91.7608 5.34592 92.0147 5.50462L92.3717 5.71882C92.7604 5.94892 93.0659 6.19682 93.288 6.46252C93.5101 6.72832 93.6212 7.07141 93.6212 7.49191C93.6212 7.94411 93.4645 8.32492 93.1512 8.63432C92.8378 8.94372 92.3876 9.09842 91.8005 9.09842C91.5704 9.09842 91.3681 9.07462 91.1936 9.02702C91.0191 8.97942 90.8663 8.92392 90.7355 8.86042C90.6046 8.79692 90.4955 8.72751 90.4082 8.65221C90.3209 8.57681 90.2495 8.50742 90.194 8.44392L90.6581 7.68232C90.7057 7.72992 90.7632 7.78542 90.8307 7.84892C90.8981 7.91242 90.9794 7.97382 91.0746 8.03332C91.1698 8.09282 91.2769 8.14241 91.3959 8.18211C91.5149 8.22181 91.6537 8.24162 91.8124 8.24162C92.098 8.24162 92.3162 8.17812 92.4669 8.05122C92.6176 7.92432 92.693 7.76962 92.693 7.58712C92.693 7.45222 92.6752 7.33522 92.6395 7.23602C92.6038 7.13692 92.5502 7.04762 92.4788 6.96832C92.4074 6.88902 92.3201 6.81362 92.217 6.74222C92.1139 6.67082 91.9949 6.59152 91.86 6.50422L91.503 6.27811C91.146 6.04801 90.8663 5.80612 90.6641 5.55222C90.4618 5.29832 90.3606 4.97312 90.3606 4.57642C90.3606 4.36222 90.4023 4.16582 90.4856 3.98732C90.5689 3.80892 90.6859 3.65422 90.8366 3.52322C90.9873 3.39232 91.1639 3.28921 91.3662 3.21381C91.5685 3.13851 91.7846 3.10081 92.0147 3.10081C92.2368 3.10081 92.4272 3.12261 92.5859 3.16621C92.7446 3.20991 92.8814 3.26542 92.9965 3.33282C93.1115 3.40032 93.2067 3.46772 93.2821 3.53512C93.3574 3.60262 93.4189 3.66012 93.4665 3.70772L93.05 4.39792ZM97.1912 4.02901H95.9417V7.19442C95.9417 7.59902 95.9933 7.87472 96.0964 8.02142C96.1995 8.16822 96.3741 8.24162 96.62 8.24162C96.7628 8.24162 96.8858 8.22181 96.9889 8.18211C97.092 8.14241 97.1674 8.10672 97.215 8.07502L97.3459 8.84852C97.3062 8.88022 97.211 8.92981 97.0603 8.99731C96.9096 9.06471 96.7073 9.09842 96.4534 9.09842C95.9615 9.09842 95.5926 8.96161 95.3467 8.68781C95.1008 8.41421 94.9778 7.96002 94.9778 7.32532V4.02901H94.2876V3.38641L94.9778 3.24361L95.0849 1.64902H95.9417V3.24361H97.3102L97.1912 4.02901ZM101.868 5.17142C101.868 5.41732 101.86 5.62951 101.844 5.80801C101.828 5.98651 101.812 6.14321 101.796 6.27811H98.881C98.9127 6.95241 99.0575 7.44832 99.3154 7.76562C99.5732 8.08292 99.9441 8.24162 100.428 8.24162C100.595 8.24162 100.745 8.22181 100.88 8.18211C101.015 8.14241 101.132 8.09481 101.231 8.03931C101.33 7.98381 101.414 7.92822 101.481 7.87272C101.549 7.81722 101.598 7.77351 101.63 7.74181L101.987 8.42012C101.947 8.45982 101.888 8.51731 101.808 8.59261C101.729 8.66801 101.622 8.74342 101.487 8.81882C101.352 8.89412 101.186 8.95961 100.987 9.01511C100.789 9.07061 100.555 9.09842 100.285 9.09842C99.9282 9.09842 99.6049 9.03891 99.3154 8.91991C99.0258 8.80091 98.7799 8.61642 98.5776 8.36652C98.3753 8.11662 98.2186 7.79932 98.1075 7.41452C97.9964 7.02982 97.9409 6.56771 97.9409 6.02821C97.9409 5.52051 97.9984 5.08212 98.1135 4.71322C98.2285 4.34432 98.3852 4.04092 98.5835 3.80292C98.7818 3.56492 99.0119 3.38842 99.2737 3.27332C99.5355 3.15832 99.8171 3.10081 100.119 3.10081C100.666 3.10081 101.094 3.27332 101.404 3.61842C101.713 3.96352 101.868 4.48122 101.868 5.17142ZM100.059 3.88622C99.718 3.88622 99.4443 4.02901 99.238 4.31461C99.0317 4.60021 98.9127 5.01272 98.881 5.55222H100.964C100.971 5.51252 100.977 5.45502 100.981 5.37962C100.985 5.30432 100.987 5.22302 100.987 5.13572C100.987 4.73902 100.908 4.43162 100.749 4.21342C100.591 3.99532 100.361 3.88622 100.059 3.88622ZM105.664 4.08852C105.64 4.07262 105.589 4.05281 105.509 4.02901C105.43 4.00521 105.323 3.99332 105.188 3.99332C104.887 3.99332 104.65 4.07461 104.48 4.23721C104.309 4.39991 104.188 4.57642 104.117 4.76682V8.95562H103.153V3.24361H104.034V4.01711H104.057C104.097 3.90601 104.149 3.79692 104.212 3.68982C104.276 3.58272 104.355 3.48751 104.45 3.40421C104.545 3.32091 104.658 3.25552 104.789 3.20792C104.92 3.16032 105.077 3.13651 105.259 3.13651C105.394 3.13651 105.503 3.14842 105.587 3.17222C105.67 3.19602 105.735 3.21582 105.783 3.23172L105.664 4.08852ZM107.58 8.95562H106.616V3.24361H107.58V8.95562ZM107.104 1.86322C106.906 1.86322 106.747 1.79971 106.628 1.67281C106.509 1.54591 106.449 1.37932 106.449 1.17302C106.449 0.974719 106.509 0.81202 106.628 0.68512C106.747 0.55822 106.906 0.494713 107.104 0.494713C107.294 0.494713 107.449 0.55822 107.568 0.68512C107.687 0.81202 107.746 0.974719 107.746 1.17302C107.746 1.37932 107.687 1.54591 107.568 1.67281C107.449 1.79971 107.294 1.86322 107.104 1.86322ZM113.054 8.95562H112.173V8.31302H112.149C112.126 8.36062 112.074 8.43002 111.995 8.52122C111.915 8.61252 111.814 8.69972 111.691 8.78302C111.568 8.86632 111.42 8.93972 111.245 9.00322C111.071 9.06672 110.876 9.09842 110.662 9.09842C110.408 9.09842 110.18 9.06072 109.978 8.98542C109.775 8.91002 109.603 8.78901 109.46 8.62241C109.317 8.45581 109.208 8.23962 109.133 7.97382C109.058 7.70812 109.02 7.38082 109.02 6.99212V3.24361H109.984V6.92072C109.984 7.39672 110.061 7.73582 110.216 7.93822C110.37 8.14042 110.61 8.24162 110.936 8.24162C111.213 8.24162 111.447 8.17222 111.638 8.03332C111.828 7.89452 111.979 7.75772 112.09 7.62282V3.24361H113.054V8.95562ZM117.528 8.95562V5.27852C117.528 4.81042 117.461 4.47331 117.326 4.26701C117.191 4.06071 116.973 3.95762 116.671 3.95762C116.513 3.95762 116.372 3.97741 116.249 4.01711C116.126 4.05681 116.017 4.10632 115.922 4.16582C115.827 4.22532 115.743 4.29081 115.672 4.36221C115.6 4.43361 115.541 4.49712 115.493 4.55262V8.95562H114.529V3.24361H115.41V3.88622H115.434C115.474 3.82272 115.533 3.74541 115.612 3.65421C115.692 3.56291 115.791 3.47562 115.91 3.39232C116.029 3.30902 116.168 3.23962 116.326 3.18412C116.485 3.12862 116.664 3.10081 116.862 3.10081C117.512 3.10081 117.973 3.35472 118.242 3.86242C118.298 3.78312 118.373 3.69781 118.468 3.60651C118.564 3.51531 118.675 3.43201 118.802 3.35661C118.928 3.28131 119.071 3.21982 119.23 3.17222C119.389 3.12462 119.563 3.10081 119.754 3.10081C120.912 3.10081 121.491 3.77512 121.491 5.12382V8.95562H120.527V5.27852C120.527 4.81042 120.444 4.47331 120.277 4.26701C120.111 4.06071 119.865 3.95762 119.539 3.95762C119.27 3.95762 119.046 4.02312 118.867 4.15392C118.689 4.28492 118.548 4.40982 118.445 4.52882C118.46 4.61612 118.472 4.70932 118.48 4.80852C118.488 4.90762 118.492 5.01272 118.492 5.12382V8.95562H117.528ZM42.5703 16.029H41.4041V20.9556H40.4402V16.029H39.75V15.3864L40.4402 15.2555V14.1131C40.4402 13.8037 40.4838 13.5379 40.5711 13.3158C40.6584 13.0937 40.7734 12.9112 40.9162 12.7684C41.059 12.6256 41.2256 12.5225 41.416 12.459C41.6064 12.3955 41.8087 12.3638 42.0229 12.3638C42.2292 12.3638 42.4037 12.3916 42.5465 12.4471C42.6893 12.5026 42.7845 12.5463 42.8321 12.578L42.6298 13.3753C42.5822 13.3436 42.5148 13.3098 42.4275 13.2741C42.3402 13.2384 42.2331 13.2206 42.1062 13.2206C41.8761 13.2206 41.7016 13.292 41.5826 13.4348C41.4636 13.5776 41.4041 13.8394 41.4041 14.2202V15.2436H42.6893L42.5703 16.029ZM47.5207 20.9556H46.6401V20.313H46.6163C46.5925 20.3606 46.5409 20.43 46.4616 20.5212C46.3823 20.6125 46.2811 20.6997 46.1582 20.783C46.0352 20.8663 45.8864 20.9397 45.7119 21.0032C45.5374 21.0667 45.343 21.0984 45.1288 21.0984C44.8749 21.0984 44.6469 21.0607 44.4446 20.9854C44.2423 20.91 44.0697 20.789 43.9269 20.6224C43.7841 20.4558 43.675 20.2396 43.5997 19.9738C43.5243 19.7081 43.4866 19.3808 43.4866 18.9921V15.2436H44.4505V18.9207C44.4505 19.3967 44.5279 19.7358 44.6826 19.9382C44.8373 20.1404 45.0772 20.2416 45.4025 20.2416C45.6802 20.2416 45.9142 20.1722 46.1046 20.0333C46.295 19.8945 46.4457 19.7577 46.5568 19.6228V15.2436H47.5207V20.9556ZM45.1526 13.6014C45.1526 13.7839 45.0971 13.9306 44.986 14.0417C44.8749 14.1528 44.7401 14.2083 44.5814 14.2083C44.4227 14.2083 44.2879 14.1528 44.1768 14.0417C44.0657 13.9306 44.0102 13.7839 44.0102 13.6014C44.0102 13.4189 44.0657 13.2722 44.1768 13.1611C44.2879 13.05 44.4227 12.9945 44.5814 12.9945C44.7401 12.9945 44.8749 13.05 44.986 13.1611C45.0971 13.2722 45.1526 13.4189 45.1526 13.6014ZM46.9852 13.6014C46.9852 13.7839 46.9297 13.9306 46.8186 14.0417C46.7075 14.1528 46.5727 14.2083 46.414 14.2083C46.2553 14.2083 46.1205 14.1528 46.0094 14.0417C45.8983 13.9306 45.8428 13.7839 45.8428 13.6014C45.8428 13.4189 45.8983 13.2722 46.0094 13.1611C46.1205 13.05 46.2553 12.9945 46.414 12.9945C46.5727 12.9945 46.7075 13.05 46.8186 13.1611C46.9297 13.2722 46.9852 13.4189 46.9852 13.6014ZM51.5072 16.0885C51.4834 16.0726 51.4318 16.0528 51.3525 16.029C51.2732 16.0052 51.1661 15.9933 51.0312 15.9933C50.7297 15.9933 50.4937 16.0746 50.3232 16.2372C50.1526 16.3999 50.0316 16.5764 49.9602 16.7668V20.9556H48.9963V15.2436H49.8769V16.0171H49.9007C49.9404 15.906 49.9919 15.7969 50.0554 15.6898C50.1189 15.5827 50.1982 15.4875 50.2934 15.4042C50.3886 15.3209 50.5016 15.2555 50.6325 15.2079C50.7635 15.1603 50.9201 15.1365 51.1026 15.1365C51.2375 15.1365 51.3466 15.1484 51.4299 15.1722C51.5132 15.196 51.5786 15.2158 51.6262 15.2317L51.5072 16.0885ZM59.2184 14.839C59.2184 15.1246 59.1827 15.3745 59.1113 15.5887C59.0399 15.8029 58.9427 15.9873 58.8198 16.142C58.6968 16.2967 58.554 16.4217 58.3914 16.5169C58.2287 16.6121 58.0601 16.6835 57.8856 16.7311V16.7549C58.0998 16.7946 58.3001 16.8699 58.4865 16.981C58.673 17.0921 58.8356 17.2309 58.9745 17.3975C59.1133 17.5641 59.2244 17.7604 59.3077 17.9865C59.391 18.2127 59.4326 18.4606 59.4326 18.7303C59.4326 19.0556 59.3771 19.3531 59.266 19.6228C59.1549 19.8925 58.9824 20.1266 58.7483 20.3249C58.5143 20.5232 58.2188 20.6779 57.8618 20.789C57.5048 20.9001 57.0804 20.9556 56.5885 20.9556H54.9106V12.7446H56.4933C56.9772 12.7446 57.3918 12.7942 57.7369 12.8933C58.082 12.9925 58.3656 13.1333 58.5877 13.3158C58.8098 13.4983 58.9705 13.7184 59.0697 13.9762C59.1688 14.2341 59.2184 14.5217 59.2184 14.839ZM58.1712 14.8747C58.1712 14.4939 58.0363 14.1805 57.7666 13.9346C57.4969 13.6887 57.0724 13.5657 56.4933 13.5657H55.9459V16.3979H56.4814C57.0367 16.3979 57.4572 16.263 57.7428 15.9933C58.0284 15.7236 58.1712 15.3507 58.1712 14.8747ZM58.3259 18.6589C58.3259 18.2146 58.1811 17.8636 57.8916 17.6057C57.602 17.3479 57.1875 17.219 56.648 17.219H55.9459V20.0988H56.5885C57.1994 20.0988 57.6417 19.9778 57.9154 19.7358C58.1891 19.4939 58.3259 19.1349 58.3259 18.6589ZM61.6698 20.9556H60.7059V15.2436H61.6698V20.9556ZM61.1938 13.8632C60.9955 13.8632 60.8368 13.7997 60.7178 13.6728C60.5988 13.5459 60.5393 13.3793 60.5393 13.173C60.5393 12.9747 60.5988 12.812 60.7178 12.6851C60.8368 12.5582 60.9955 12.4947 61.1938 12.4947C61.3842 12.4947 61.5389 12.5582 61.6579 12.6851C61.7769 12.812 61.8364 12.9747 61.8364 13.173C61.8364 13.3793 61.7769 13.5459 61.6579 13.6728C61.5389 13.7997 61.3842 13.8632 61.1938 13.8632ZM64.0974 19.6228C64.0974 19.8608 64.1311 20.0274 64.1986 20.1226C64.266 20.2178 64.383 20.2654 64.5496 20.2654C64.6369 20.2654 64.7103 20.2575 64.7698 20.2416C64.8293 20.2257 64.8749 20.2099 64.9066 20.194L64.9899 20.908C64.9423 20.9318 64.855 20.9635 64.7281 21.0032C64.6012 21.0429 64.4306 21.0627 64.2164 21.0627C63.8911 21.0627 63.6293 20.9635 63.431 20.7652C63.2327 20.5669 63.1335 20.2138 63.1335 19.7061V12.5423L64.0974 12.4352V19.6228ZM65.5968 18.1829C65.5968 17.6038 65.6722 17.1198 65.8229 16.7311C65.9736 16.3424 66.168 16.029 66.406 15.791C66.644 15.553 66.9137 15.3844 67.2152 15.2852C67.5167 15.1861 67.8181 15.1365 68.1196 15.1365C68.3021 15.1365 68.4607 15.1504 68.5956 15.1782C68.7305 15.2059 68.8415 15.2396 68.9288 15.2793V12.5423L69.8927 12.4352V20.9556H69.0121V20.3487H68.9883C68.9645 20.3963 68.9209 20.4617 68.8574 20.545C68.7939 20.6283 68.7067 20.7116 68.5956 20.7949C68.4845 20.8782 68.3457 20.9496 68.1791 21.0092C68.0125 21.0687 67.8181 21.0984 67.596 21.0984C67.3263 21.0984 67.0704 21.0449 66.8285 20.9377C66.5865 20.8306 66.3743 20.6601 66.1918 20.426C66.0093 20.192 65.8646 19.8905 65.7575 19.5216C65.6504 19.1527 65.5968 18.7065 65.5968 18.1829ZM67.8578 20.2416C68.0085 20.2416 68.1434 20.2218 68.2624 20.1821C68.3814 20.1424 68.4845 20.0928 68.5718 20.0333C68.6591 19.9738 68.7325 19.9124 68.792 19.8489C68.8515 19.7854 68.8971 19.7299 68.9288 19.6823V16.1599C68.8415 16.1044 68.7404 16.0568 68.6254 16.0171C68.5103 15.9774 68.3655 15.9576 68.191 15.9576C67.9689 15.9576 67.7606 15.9953 67.5663 16.0706C67.3719 16.146 67.2033 16.271 67.0605 16.4455C66.9177 16.62 66.8047 16.8461 66.7214 17.1238C66.6381 17.4015 66.5964 17.7426 66.5964 18.1472C66.5964 18.5439 66.6301 18.8751 66.6976 19.1408C66.765 19.4066 66.8582 19.6208 66.9772 19.7834C67.0962 19.9461 67.2311 20.0631 67.3818 20.1345C67.5325 20.2059 67.6912 20.2416 67.8578 20.2416ZM75.3667 20.9556H74.4861V20.313H74.4623C74.4385 20.3606 74.3869 20.43 74.3076 20.5212C74.2283 20.6125 74.1271 20.6997 74.0042 20.783C73.8812 20.8663 73.7324 20.9397 73.5579 21.0032C73.3834 21.0667 73.189 21.0984 72.9748 21.0984C72.7209 21.0984 72.4929 21.0607 72.2906 20.9854C72.0883 20.91 71.9157 20.789 71.7729 20.6224C71.6301 20.4558 71.521 20.2396 71.4457 19.9738C71.3703 19.7081 71.3326 19.3808 71.3326 18.9921V15.2436H72.2965V18.9207C72.2965 19.3967 72.3739 19.7358 72.5286 19.9382C72.6833 20.1404 72.9232 20.2416 73.2485 20.2416C73.5262 20.2416 73.7602 20.1722 73.9506 20.0333C74.141 19.8945 74.2917 19.7577 74.4028 19.6228V15.2436H75.3667V20.9556ZM79.9601 20.9556V17.2785C79.9601 16.7946 79.8788 16.4475 79.7162 16.2372C79.5535 16.027 79.3056 15.9219 78.9724 15.9219C78.6868 15.9219 78.4488 15.9933 78.2584 16.1361C78.068 16.2789 77.9173 16.4177 77.8062 16.5526V20.9556H76.8423V15.2436H77.7229V15.8862H77.7467C77.7705 15.8386 77.8221 15.7692 77.9014 15.6779C77.9807 15.5867 78.0839 15.4994 78.2108 15.4161C78.3377 15.3328 78.4885 15.2595 78.663 15.196C78.8375 15.1325 79.0359 15.1008 79.258 15.1008C79.5119 15.1008 79.7419 15.1385 79.9482 15.2138C80.1545 15.2892 80.329 15.4102 80.4718 15.5768C80.6146 15.7434 80.7257 15.9596 80.805 16.2253C80.8843 16.4911 80.924 16.8184 80.924 17.2071V20.9556H79.9601ZM86.4575 15.9933H85.7435C85.926 16.2948 86.0172 16.6359 86.0172 17.0167C86.0172 17.3182 85.9676 17.5899 85.8685 17.8318C85.7693 18.0738 85.6305 18.2781 85.452 18.4447C85.2735 18.6113 85.0632 18.7382 84.8213 18.8255C84.5793 18.9128 84.3195 18.9564 84.0418 18.9564H83.8871C83.8395 18.9564 83.7879 18.9524 83.7324 18.9445C83.6372 18.9842 83.538 19.0476 83.4349 19.1349C83.3318 19.2222 83.2802 19.3372 83.2802 19.48C83.2802 19.599 83.3258 19.6962 83.4171 19.7715C83.5083 19.8469 83.657 19.8846 83.8633 19.8846H84.5892C84.8589 19.8846 85.1088 19.9124 85.3389 19.9679C85.569 20.0234 85.7693 20.1127 85.9399 20.2356C86.1104 20.3586 86.2433 20.5153 86.3385 20.7057C86.4337 20.8961 86.4813 21.1262 86.4813 21.3959C86.4813 21.7053 86.4159 21.9869 86.285 22.2408C86.1541 22.4947 85.9696 22.7128 85.7316 22.8953C85.4936 23.0778 85.204 23.2206 84.8629 23.3237C84.5218 23.4268 84.141 23.4784 83.7205 23.4784C83.1096 23.4784 82.6455 23.3455 82.3282 23.0798C82.0109 22.814 81.8522 22.4312 81.8522 21.9314C81.8522 21.7172 81.8899 21.5328 81.9653 21.3781C82.0406 21.2234 82.1299 21.0885 82.233 20.9735C82.3361 20.8584 82.4413 20.7672 82.5484 20.6997C82.6554 20.6323 82.7407 20.5788 82.8042 20.5391V20.5153C82.5583 20.3328 82.4353 20.0671 82.4353 19.718C82.4353 19.5673 82.4651 19.4364 82.5246 19.3253C82.5841 19.2142 82.6515 19.123 82.7269 19.0516C82.8022 18.9802 82.8776 18.9227 82.953 18.879C83.0283 18.8354 83.0858 18.8057 83.1255 18.7898V18.766C82.832 18.6311 82.596 18.4189 82.4175 18.1293C82.239 17.8398 82.1497 17.4689 82.1497 17.0167C82.1497 16.6994 82.2013 16.4197 82.3044 16.1778C82.4075 15.9358 82.5464 15.7355 82.7209 15.5768C82.8954 15.4181 83.0997 15.2991 83.3338 15.2198C83.5678 15.1405 83.8197 15.1008 84.0894 15.1008C84.3591 15.1008 84.613 15.1484 84.851 15.2436H86.5884L86.4575 15.9933ZM83.8038 20.7771C83.6372 20.7771 83.4904 20.7652 83.3635 20.7414C83.2921 20.7811 83.2227 20.8287 83.1553 20.8842C83.0878 20.9397 83.0263 21.0072 82.9708 21.0865C82.9153 21.1658 82.8697 21.259 82.834 21.3662C82.7983 21.4733 82.7804 21.5982 82.7804 21.741C82.7804 22.3519 83.1176 22.6573 83.7919 22.6573C84.371 22.6573 84.7994 22.5443 85.0771 22.3182C85.3548 22.0921 85.4936 21.8322 85.4936 21.5387C85.4936 21.261 85.4063 21.0647 85.2318 20.9496C85.0573 20.8346 84.8232 20.7771 84.5297 20.7771H83.8038ZM85.0771 17.0167C85.0771 16.6042 84.9799 16.3106 84.7856 16.1361C84.5912 15.9616 84.3631 15.8743 84.1013 15.8743C83.8236 15.8743 83.5856 15.9616 83.3873 16.1361C83.189 16.3106 83.0898 16.6042 83.0898 17.0167C83.0898 17.4292 83.189 17.7228 83.3873 17.8973C83.5856 18.0718 83.8157 18.1591 84.0775 18.1591C84.3552 18.1591 84.5912 18.0718 84.7856 17.8973C84.9799 17.7228 85.0771 17.4292 85.0771 17.0167ZM44.1651 32.9557H43.2845V32.3131H43.2607C43.2369 32.3607 43.1853 32.4301 43.106 32.5213C43.0267 32.6126 42.9255 32.6998 42.8026 32.7831C42.6796 32.8664 42.5308 32.9398 42.3563 33.0033C42.1818 33.0668 41.9874 33.0985 41.7732 33.0985C41.5193 33.0985 41.2913 33.0608 41.089 32.9855C40.8867 32.9101 40.7141 32.7891 40.5713 32.6225C40.4285 32.4559 40.3194 32.2397 40.2441 31.9739C40.1687 31.7082 40.131 31.3809 40.131 30.9922V27.2437H41.0949V30.9208C41.0949 31.3968 41.1723 31.7359 41.327 31.9383C41.4817 32.1405 41.7216 32.2417 42.0469 32.2417C42.3246 32.2417 42.5586 32.1723 42.749 32.0334C42.9394 31.8946 43.0901 31.7578 43.2012 31.6229V27.2437H44.1651V32.9557ZM48.7585 32.9557V29.2786C48.7585 28.7947 48.6772 28.4476 48.5146 28.2373C48.3519 28.0271 48.104 27.922 47.7708 27.922C47.4852 27.922 47.2472 27.9934 47.0568 28.1362C46.8664 28.279 46.7157 28.4178 46.6046 28.5527V32.9557H45.6407V27.2437H46.5213V27.8863H46.5451C46.5689 27.8387 46.6205 27.7693 46.6998 27.678C46.7791 27.5868 46.8823 27.4995 47.0092 27.4162C47.1361 27.3329 47.2869 27.2596 47.4614 27.1961C47.6359 27.1326 47.8343 27.1009 48.0564 27.1009C48.3103 27.1009 48.5403 27.1386 48.7466 27.2139C48.9529 27.2893 49.1274 27.4103 49.2702 27.5769C49.413 27.7435 49.5241 27.9597 49.6034 28.2254C49.6827 28.4912 49.7224 28.8185 49.7224 29.2072V32.9557H48.7585ZM50.9005 30.183C50.9005 29.6039 50.9759 29.1199 51.1266 28.7312C51.2773 28.3425 51.4717 28.0291 51.7097 27.7911C51.9477 27.5531 52.2174 27.3845 52.5189 27.2853C52.8204 27.1862 53.1218 27.1366 53.4233 27.1366C53.6058 27.1366 53.7644 27.1505 53.8993 27.1783C54.0342 27.206 54.1452 27.2397 54.2325 27.2794V24.5424L55.1964 24.4353V32.9557H54.3158V32.3488H54.292C54.2682 32.3964 54.2246 32.4618 54.1611 32.5451C54.0976 32.6284 54.0104 32.7117 53.8993 32.795C53.7882 32.8783 53.6494 32.9497 53.4828 33.0093C53.3162 33.0688 53.1218 33.0985 52.8997 33.0985C52.63 33.0985 52.3741 33.045 52.1322 32.9378C51.8902 32.8307 51.678 32.6602 51.4955 32.4261C51.313 32.1921 51.1683 31.8906 51.0612 31.5217C50.9541 31.1528 50.9005 30.7066 50.9005 30.183ZM53.1615 32.2417C53.3122 32.2417 53.4471 32.2219 53.5661 32.1822C53.6851 32.1425 53.7882 32.0929 53.8755 32.0334C53.9628 31.9739 54.0362 31.9125 54.0957 31.849C54.1552 31.7855 54.2008 31.73 54.2325 31.6824V28.16C54.1452 28.1045 54.0441 28.0569 53.9291 28.0172C53.814 27.9775 53.6692 27.9577 53.4947 27.9577C53.2726 27.9577 53.0643 27.9954 52.87 28.0707C52.6756 28.1461 52.507 28.2711 52.3642 28.4456C52.2214 28.6201 52.1084 28.8462 52.0251 29.1239C51.9418 29.4016 51.9001 29.7427 51.9001 30.1473C51.9001 30.544 51.9338 30.8752 52.0013 31.1409C52.0687 31.4067 52.1619 31.6209 52.2809 31.7835C52.3999 31.9462 52.5348 32.0632 52.6855 32.1346C52.8362 32.206 52.9949 32.2417 53.1615 32.2417ZM59.3971 32.9557V24.7447H63.4312L63.3598 25.5658H60.4324V28.6003H63.1337V29.4214H60.4324V32.9557H59.3971ZM64.1571 30.0997C64.1571 29.5761 64.2186 29.1239 64.3416 28.7431C64.4645 28.3623 64.6311 28.0509 64.8414 27.809C65.0516 27.567 65.2936 27.3885 65.5673 27.2734C65.841 27.1584 66.1325 27.1009 66.4419 27.1009C66.7592 27.1009 67.0528 27.1584 67.3225 27.2734C67.5922 27.3885 67.8263 27.567 68.0246 27.809C68.2229 28.0509 68.3796 28.3623 68.4947 28.7431C68.6097 29.1239 68.6672 29.5761 68.6672 30.0997C68.6672 30.6312 68.6077 31.0874 68.4887 31.4682C68.3697 31.849 68.2051 32.1604 67.9949 32.4023C67.7846 32.6443 67.5407 32.8208 67.263 32.9319C66.9853 33.043 66.6918 33.0985 66.3824 33.0985C66.0651 33.0985 65.7715 33.043 65.5018 32.9319C65.2321 32.8208 64.998 32.6443 64.7997 32.4023C64.6014 32.1604 64.4447 31.851 64.3297 31.4741C64.2146 31.0973 64.1571 30.6392 64.1571 30.0997ZM67.6676 30.0997C67.6676 29.3381 67.5565 28.7847 67.3344 28.4397C67.1123 28.0945 66.8029 27.922 66.4062 27.922C66.0095 27.922 65.7021 28.0945 65.484 28.4397C65.2658 28.7847 65.1567 29.3381 65.1567 30.0997C65.1567 30.8613 65.2678 31.4087 65.4899 31.7419C65.712 32.0751 66.0214 32.2417 66.4181 32.2417C66.8148 32.2417 67.1222 32.0751 67.3404 31.7419C67.5585 31.4087 67.6676 30.8613 67.6676 30.0997ZM72.3919 28.0886C72.3681 28.0727 72.3165 28.0529 72.2372 28.0291C72.1579 28.0053 72.0508 27.9934 71.9159 27.9934C71.6144 27.9934 71.3784 28.0747 71.2079 28.2373C71.0373 28.4 70.9163 28.5765 70.8449 28.7669V32.9557H69.881V27.2437H70.7616V28.0172H70.7854C70.8251 27.9061 70.8766 27.797 70.9401 27.6899C71.0036 27.5828 71.0829 27.4876 71.1781 27.4043C71.2733 27.321 71.3863 27.2556 71.5172 27.208C71.6482 27.1604 71.8048 27.1366 71.9873 27.1366C72.1222 27.1366 72.2313 27.1485 72.3146 27.1723C72.3979 27.1961 72.4633 27.2159 72.5109 27.2318L72.3919 28.0886ZM75.7596 28.398C75.6961 28.3266 75.5811 28.2294 75.4145 28.1064C75.2479 27.9835 75.0297 27.922 74.76 27.922C74.5061 27.922 74.3118 27.9815 74.1769 28.1005C74.042 28.2195 73.9746 28.3623 73.9746 28.5289C73.9746 28.7431 74.0361 28.9196 74.1591 29.0584C74.282 29.1973 74.4704 29.346 74.7243 29.5047L75.0813 29.7189C75.47 29.949 75.7755 30.1969 75.9976 30.4626C76.2197 30.7284 76.3308 31.0715 76.3308 31.492C76.3308 31.9442 76.1741 32.325 75.8608 32.6344C75.5474 32.9438 75.0972 33.0985 74.5101 33.0985C74.28 33.0985 74.0777 33.0747 73.9032 33.0271C73.7287 32.9795 73.5759 32.924 73.4451 32.8605C73.3142 32.797 73.2051 32.7276 73.1178 32.6523C73.0305 32.5769 72.9591 32.5075 72.9036 32.444L73.3677 31.6824C73.4153 31.73 73.4728 31.7855 73.5403 31.849C73.6077 31.9125 73.689 31.9739 73.7842 32.0334C73.8794 32.0929 73.9865 32.1425 74.1055 32.1822C74.2245 32.2219 74.3633 32.2417 74.522 32.2417C74.8076 32.2417 75.0258 32.1782 75.1765 32.0513C75.3272 31.9244 75.4026 31.7697 75.4026 31.5872C75.4026 31.4523 75.3848 31.3353 75.3491 31.2361C75.3134 31.137 75.2598 31.0477 75.1884 30.9684C75.117 30.8891 75.0297 30.8137 74.9266 30.7423C74.8235 30.6709 74.7045 30.5916 74.5696 30.5043L74.2126 30.2782C73.8556 30.0481 73.5759 29.8062 73.3737 29.5523C73.1714 29.2984 73.0702 28.9732 73.0702 28.5765C73.0702 28.3623 73.1119 28.1659 73.1952 27.9874C73.2785 27.809 73.3955 27.6543 73.5462 27.5233C73.6969 27.3924 73.8735 27.2893 74.0758 27.2139C74.2781 27.1386 74.4942 27.1009 74.7243 27.1009C74.9464 27.1009 75.1368 27.1227 75.2955 27.1663C75.4542 27.21 75.591 27.2655 75.7061 27.3329C75.8211 27.4004 75.9163 27.4678 75.9917 27.5352C76.067 27.6027 76.1285 27.6602 76.1761 27.7078L75.7596 28.398ZM80.6386 28.3504C80.6148 28.3266 80.5771 28.2909 80.5256 28.2433C80.474 28.1957 80.4085 28.1481 80.3292 28.1005C80.2499 28.0529 80.1547 28.0112 80.0436 27.9755C79.9325 27.9398 79.8056 27.922 79.6628 27.922C79.4565 27.922 79.2642 27.9597 79.0857 28.035C78.9072 28.1104 78.7525 28.2314 78.6216 28.398C78.4907 28.5646 78.3875 28.7808 78.3122 29.0465C78.2368 29.3123 78.1991 29.6356 78.1991 30.0164C78.1991 30.4369 78.2328 30.7899 78.3003 31.0755C78.3677 31.3611 78.4609 31.5892 78.5799 31.7597C78.6989 31.9303 78.8437 32.0533 79.0143 32.1286C79.1848 32.204 79.3732 32.2417 79.5795 32.2417C79.873 32.2417 80.0972 32.1901 80.2519 32.087C80.4066 31.9839 80.5156 31.9006 80.5791 31.8371L80.9718 32.5035C80.9321 32.5511 80.8746 32.6086 80.7993 32.676C80.7239 32.7435 80.6267 32.8089 80.5077 32.8724C80.3887 32.9359 80.2439 32.9894 80.0734 33.0331C79.9028 33.0767 79.7064 33.0985 79.4843 33.0985C79.167 33.0985 78.8695 33.0469 78.5918 32.9438C78.3141 32.8407 78.0722 32.6701 77.8659 32.4321C77.6596 32.1941 77.497 31.8847 77.378 31.5039C77.259 31.1231 77.1995 30.6511 77.1995 30.0878C77.1995 29.5404 77.2709 29.0763 77.4137 28.6955C77.5565 28.3147 77.7429 28.0073 77.973 27.7732C78.2031 27.5392 78.4589 27.3686 78.7406 27.2615C79.0222 27.1544 79.3058 27.1009 79.5914 27.1009C79.8056 27.1009 79.994 27.1207 80.1567 27.1604C80.3193 27.2001 80.4581 27.2496 80.5732 27.3091C80.6882 27.3686 80.7834 27.4321 80.8588 27.4995C80.9341 27.567 80.9956 27.6245 81.0432 27.6721L80.6386 28.3504ZM85.1725 32.9557V29.2786C85.1725 28.7947 85.0912 28.4476 84.9286 28.2373C84.7659 28.0271 84.518 27.922 84.1848 27.922C83.8992 27.922 83.6612 27.9934 83.4708 28.1362C83.2804 28.279 83.1297 28.4178 83.0186 28.5527V32.9557H82.0547V24.5424L83.0186 24.4353V27.8268H83.0424C83.0741 27.7792 83.1237 27.7157 83.1912 27.6364C83.2586 27.5571 83.3518 27.4777 83.4708 27.3984C83.5898 27.3191 83.7346 27.2496 83.9052 27.1901C84.0757 27.1306 84.276 27.1009 84.5061 27.1009C85.0059 27.1009 85.4026 27.2635 85.6961 27.5888C85.9896 27.9141 86.1364 28.4535 86.1364 29.2072V32.9557H85.1725ZM91.5747 32.9557H90.6941V32.3131H90.6703C90.6465 32.3607 90.5949 32.4301 90.5156 32.5213C90.4363 32.6126 90.3351 32.6998 90.2122 32.7831C90.0892 32.8664 89.9404 32.9398 89.7659 33.0033C89.5914 33.0668 89.397 33.0985 89.1828 33.0985C88.9289 33.0985 88.7009 33.0608 88.4986 32.9855C88.2963 32.9101 88.1237 32.7891 87.9809 32.6225C87.8381 32.4559 87.729 32.2397 87.6537 31.9739C87.5783 31.7082 87.5406 31.3809 87.5406 30.9922V27.2437H88.5045V30.9208C88.5045 31.3968 88.5819 31.7359 88.7366 31.9383C88.8913 32.1405 89.1312 32.2417 89.4565 32.2417C89.7342 32.2417 89.9682 32.1723 90.1586 32.0334C90.349 31.8946 90.4997 31.7578 90.6108 31.6229V27.2437H91.5747V32.9557ZM96.1681 32.9557V29.2786C96.1681 28.7947 96.0868 28.4476 95.9242 28.2373C95.7615 28.0271 95.5136 27.922 95.1804 27.922C94.8948 27.922 94.6568 27.9934 94.4664 28.1362C94.276 28.279 94.1253 28.4178 94.0142 28.5527V32.9557H93.0503V27.2437H93.9309V27.8863H93.9547C93.9785 27.8387 94.0301 27.7693 94.1094 27.678C94.1887 27.5868 94.2919 27.4995 94.4188 27.4162C94.5457 27.3329 94.6965 27.2596 94.871 27.1961C95.0455 27.1326 95.2439 27.1009 95.466 27.1009C95.7199 27.1009 95.9499 27.1386 96.1562 27.2139C96.3625 27.2893 96.537 27.4103 96.6798 27.5769C96.8226 27.7435 96.9337 27.9597 97.013 28.2254C97.0923 28.4912 97.132 28.8185 97.132 29.2072V32.9557H96.1681ZM102.665 27.9934H101.952C102.134 28.2949 102.225 28.636 102.225 29.0168C102.225 29.3183 102.176 29.59 102.077 29.8319C101.977 30.0739 101.839 30.2782 101.66 30.4448C101.482 30.6114 101.271 30.7383 101.029 30.8256C100.787 30.9129 100.528 30.9565 100.25 30.9565H100.095C100.048 30.9565 99.9959 30.9525 99.9404 30.9446C99.8452 30.9843 99.746 31.0477 99.6429 31.135C99.5398 31.2223 99.4882 31.3373 99.4882 31.4801C99.4882 31.5991 99.5338 31.6963 99.6251 31.7716C99.7163 31.847 99.865 31.8847 100.071 31.8847H100.797C101.067 31.8847 101.317 31.9125 101.547 31.968C101.777 32.0235 101.977 32.1128 102.148 32.2357C102.318 32.3587 102.451 32.5154 102.546 32.7058C102.642 32.8962 102.689 33.1263 102.689 33.396C102.689 33.7054 102.624 33.987 102.493 34.2409C102.362 34.4948 102.178 34.7129 101.94 34.8954C101.702 35.0779 101.412 35.2207 101.071 35.3238C100.73 35.4269 100.349 35.4785 99.9285 35.4785C99.3176 35.4785 98.8535 35.3456 98.5362 35.0799C98.2189 34.8141 98.0602 34.4313 98.0602 33.9315C98.0602 33.7173 98.0979 33.5329 98.1733 33.3782C98.2486 33.2235 98.3379 33.0886 98.441 32.9736C98.5441 32.8585 98.6493 32.7673 98.7564 32.6998C98.8634 32.6324 98.9487 32.5789 99.0122 32.5392V32.5154C98.7663 32.3329 98.6433 32.0672 98.6433 31.7181C98.6433 31.5674 98.6731 31.4365 98.7326 31.3254C98.7921 31.2143 98.8595 31.1231 98.9349 31.0517C99.0102 30.9803 99.0856 30.9228 99.161 30.8791C99.2363 30.8355 99.2938 30.8058 99.3335 30.7899V30.7661C99.04 30.6312 98.804 30.419 98.6255 30.1294C98.447 29.8399 98.3577 29.469 98.3577 29.0168C98.3577 28.6995 98.4093 28.4198 98.5124 28.1779C98.6155 27.9359 98.7544 27.7356 98.9289 27.5769C99.1034 27.4182 99.3077 27.2992 99.5418 27.2199C99.7758 27.1406 100.028 27.1009 100.297 27.1009C100.567 27.1009 100.821 27.1485 101.059 27.2437H102.796L102.665 27.9934ZM100.012 32.7772C99.8452 32.7772 99.6984 32.7653 99.5715 32.7415C99.5001 32.7812 99.4307 32.8288 99.3633 32.8843C99.2958 32.9398 99.2343 33.0073 99.1788 33.0866C99.1233 33.1659 99.0777 33.2591 99.042 33.3663C99.0063 33.4734 98.9884 33.5983 98.9884 33.7411C98.9884 34.352 99.3256 34.6574 99.9999 34.6574C100.579 34.6574 101.007 34.5444 101.285 34.3183C101.563 34.0922 101.702 33.8323 101.702 33.5388C101.702 33.2611 101.614 33.0648 101.44 32.9497C101.265 32.8347 101.031 32.7772 100.738 32.7772H100.012ZM101.285 29.0168C101.285 28.6043 101.188 28.3107 100.994 28.1362C100.799 27.9617 100.571 27.8744 100.309 27.8744C100.032 27.8744 99.7936 27.9617 99.5953 28.1362C99.397 28.3107 99.2978 28.6043 99.2978 29.0168C99.2978 29.4293 99.397 29.7229 99.5953 29.8974C99.7936 30.0719 100.024 30.1592 100.286 30.1592C100.563 30.1592 100.799 30.0719 100.994 29.8974C101.188 29.7229 101.285 29.4293 101.285 29.0168Z" fill="black"/>
<path d="M14.1 8.295C14.127 8.071 14.143 7.84 14.143 7.604C14.143 7.475 14.144 7.325 14.128 7.155C16.121 7.127 17.869 5.691 17.869 4.04C17.869 3.2 17.321 2.566 17.012 2.187C17.081 2.172 17.151 2.156 17.222 2.139C17.514 2.393 18.342 3.295 18.342 4.434C18.342 6.415 16.362 8.254 14.1 8.295ZM12.092 1.396C12.055 1.175 11.971 0.975 11.843 0.802999C11.85 0.600999 11.933 0.407999 12.258 0.566999C12.082 0.746999 12.218 1.066 12.218 1.066C12.218 1.066 12.578 0.898999 12.503 0.660999C13.037 0.788999 12.653 1.506 12.092 1.396ZM11.629 2.413C11.558 2.117 11.406 1.813 11.213 1.584C11.037 1.376 10.746 1.129 10.354 1.129C10.175 1.129 9.875 1.213 9.684 1.294C9.613 1.164 9.474 0.850999 9.474 0.709999C9.474 0.564999 9.719 0.417999 10.188 0.417999C11.22 0.417999 11.836 0.883998 11.836 1.666C11.836 1.941 11.727 2.191 11.629 2.413ZM14.279 15.713C14.399 15.713 14.457 15.732 14.527 15.758C14.824 16.566 15.969 18.091 16.017 18.156L16.027 18.17L16.044 18.166C16.325 18.121 17.042 18.013 17.642 18.013H17.656C17.721 18.013 17.795 18.013 17.842 18.059C17.881 18.098 17.9 18.166 17.9 18.263C17.9 18.412 17.837 18.667 17.761 18.776C17.551 18.547 17.21 18.444 16.664 18.444C16.5 18.444 16.306 18.493 16.201 18.521L16.158 18.53L16.109 18.543L16.424 18.858C16.91 19.344 17.33 19.763 17.33 20.042C17.33 20.21 17.166 20.429 17.016 20.526C16.983 20.015 16.467 19.331 15.964 18.948L15.921 18.916L15.913 19.096C15.906 19.218 15.895 19.401 15.895 19.597C15.895 20.57 15.796 20.718 15.459 20.718C15.407 20.718 15.328 20.703 15.279 20.685C15.469 20.45 15.544 20.14 15.544 19.596L15.541 19.345L15.538 19.143C15.538 18.92 15.561 18.755 15.579 18.622L15.589 18.547L15.536 18.54C15.378 18.518 15.085 18.478 14.861 18.478C14.38 18.478 14.054 18.522 13.818 18.744C13.662 18.618 13.502 18.401 13.502 18.264C13.502 18.061 13.628 18.045 13.794 18.045C13.878 18.045 13.956 18.057 14.064 18.07C14.271 18.101 14.582 18.147 15.223 18.147H15.263L15.25 18.108C15.088 17.643 14.642 16.967 13.927 16.098C13.991 15.865 14.054 15.713 14.279 15.713ZM8.105 18.108L8.092 18.147H8.132C8.772 18.147 9.084 18.101 9.291 18.07C9.399 18.057 9.477 18.045 9.561 18.045C9.726 18.045 9.853 18.061 9.853 18.264C9.853 18.401 9.693 18.618 9.538 18.744C9.301 18.522 8.975 18.478 8.495 18.478C8.27 18.478 7.976 18.518 7.819 18.54L7.794 18.543L7.766 18.547L7.775 18.622C7.794 18.755 7.817 18.92 7.817 19.143L7.814 19.345L7.811 19.596C7.811 20.14 7.886 20.45 8.077 20.685C8.027 20.703 7.948 20.718 7.896 20.718C7.558 20.718 7.46 20.57 7.46 19.597C7.46 19.401 7.45 19.218 7.443 19.096L7.433 18.915L7.391 18.948C6.889 19.331 6.371 20.015 6.34 20.526C6.189 20.429 6.025 20.21 6.025 20.042C6.025 19.763 6.445 19.344 6.931 18.858L7.246 18.543L7.154 18.521C7.049 18.493 6.855 18.444 6.69 18.444C6.145 18.444 5.805 18.547 5.594 18.776C5.518 18.667 5.455 18.412 5.455 18.263C5.455 18.166 5.474 18.098 5.513 18.059C5.56 18.013 5.634 18.013 5.699 18.013H5.713C6.313 18.013 7.031 18.121 7.311 18.166L7.328 18.17L7.338 18.156C7.387 18.091 8.531 16.566 8.829 15.758C8.897 15.732 8.956 15.713 9.076 15.713C9.301 15.713 9.364 15.865 9.429 16.098C8.713 16.967 8.267 17.643 8.105 18.108ZM5.013 4.434C5.013 3.295 5.842 2.393 6.134 2.139C6.204 2.156 6.274 2.172 6.344 2.187C6.034 2.566 5.486 3.2 5.486 4.04C5.486 5.708 7.268 7.156 9.286 7.156C9.273 7.299 9.266 7.449 9.266 7.604C9.266 7.85 9.28 8.079 9.304 8.295C7.022 8.281 5.013 6.429 5.013 4.434ZM20.319 7.947C21.343 9.566 22.144 9.539 23.354 9.539C22.353 8.772 21.691 7.789 21.375 7.287L19.505 4.295C19.323 3.371 18.845 2.507 18.129 1.864C18.37 1.773 18.57 1.677 18.69 1.586C17.469 1.586 16.259 0.966 15.593 0.966C15.165 0.966 14.89 1.222 14.89 1.56C14.917 1.937 15.305 2.32 16.022 2.32C16.184 2.32 16.392 2.299 16.62 2.261C17.008 2.802 17.321 3.291 17.321 3.989C17.321 5.299 15.755 6.32 14.174 6.32C14.084 6.32 13.999 6.316 13.91 6.31C13.767 5.985 13.29 5.44 13.29 4.82C13.29 3.779 13.969 2.929 13.969 1.898C13.969 1.257 13.657 0.86 13.537 0.695C13.731 0.515 13.943 0.294 13.993 0.142C13.88 0.191 13.746 0.196999 13.551 0.196999C12.793 0.196999 12.175 0 11.573 0C11.229 0 11.137 0.105999 11.137 0.206999C11.137 0.243999 11.142 0.281999 11.152 0.299999C11.024 0.249999 10.904 0.217 10.761 0.191C10.583 0.157 10.392 0.139999 10.188 0.139999C9.456 0.139999 9.196 0.446999 9.196 0.709999C9.196 0.931999 9.371 1.338 9.57 1.648C9.855 1.504 10.198 1.407 10.354 1.407C10.743 1.407 11.088 1.777 11.271 2.215C11.01 2.247 10.96 2.258 10.696 2.258C9.983 2.258 9.498 2.003 9.398 2.003C9.389 2.003 9.37 2.008 9.37 2.024C9.37 2.124 9.572 2.388 9.97 2.533C10.495 2.725 11.281 2.805 11.412 2.827C11.412 2.85 11.279 3.098 11.13 3.146C11.099 3.156 11.074 3.157 11.037 3.149C10.489 3.041 10.336 2.995 9.641 2.731C9.62 2.723 9.607 2.736 9.607 2.758C9.607 3.033 10.319 3.64 10.957 3.873C10.424 4.553 9.759 5.249 9.445 6.31C9.356 6.316 9.27 6.32 9.181 6.32C7.6 6.32 6.034 5.299 6.034 3.989C6.034 3.291 6.347 2.802 6.735 2.261C6.963 2.299 7.17 2.32 7.333 2.32C8.05 2.32 8.438 1.937 8.466 1.56C8.466 1.222 8.191 0.966 7.762 0.966C7.096 0.966 5.887 1.586 4.664 1.586C4.785 1.677 4.985 1.773 5.225 1.864C4.51 2.507 4.032 3.371 3.85 4.295L1.98 7.287C1.665 7.789 1.001 8.772 0 9.539C1.21 9.539 2.012 9.566 3.036 7.947L3.995 6.413C4.066 6.612 4.153 6.806 4.256 6.996L2.349 10.047C2.032 10.553 1.374 11.527 0.368999 12.299C1.579 12.299 2.381 12.327 3.405 10.709L5.046 8.081C5.169 8.212 5.298 8.34 5.434 8.462L3.118 12.17C2.8 12.677 2.146 13.649 1.139 14.42C2.349 14.42 3.151 14.449 4.174 12.83L6.432 9.215C6.581 9.309 6.733 9.4 6.891 9.486L4.134 13.897C3.816 14.404 3.162 15.373 2.155 16.147C3.365 16.147 4.167 16.175 5.191 14.557L8.029 10.014C8.197 10.078 8.367 10.14 8.54 10.195L5.333 15.328C5.02 15.828 4.351 16.815 3.355 17.578C4.564 17.578 5.367 17.606 6.39 15.988L9.808 10.518C9.843 10.524 9.877 10.529 9.911 10.536C10.004 10.832 10.069 11.108 10.069 11.383C10.069 13.102 8.941 14.62 7.587 15.792C7.674 15.83 7.825 15.843 7.964 15.843C8.244 15.843 8.424 15.828 8.551 15.806C8.237 16.519 7.563 17.44 7.223 17.916C6.78 17.836 6.135 17.774 5.713 17.774C5.271 17.774 5.221 18.032 5.221 18.263C5.221 18.664 5.409 18.983 5.627 19.161C5.709 18.956 5.874 18.682 6.69 18.682C6.706 18.682 6.734 18.684 6.772 18.687C6.534 18.952 5.787 19.556 5.787 20.042C5.787 20.364 6.14 20.847 6.605 20.847C6.578 20.743 6.581 20.648 6.581 20.576C6.581 20.182 6.93 19.721 7.225 19.399C7.216 19.495 7.221 19.485 7.221 19.597C7.221 20.528 7.305 20.956 7.896 20.956C8.186 20.956 8.386 20.797 8.455 20.749C8.071 20.396 8.051 20.118 8.051 19.596C8.052 19.46 8.053 19.327 8.055 19.144C8.056 19.024 8.054 18.866 8.035 18.752C8.246 18.723 8.332 18.723 8.495 18.723C8.495 18.723 9.334 18.656 9.537 19.093C9.765 18.884 10.096 18.589 10.096 18.264C10.096 18.049 9.994 17.806 9.561 17.806C9.397 17.806 8.882 17.906 8.451 17.906C8.567 17.649 9.082 16.895 9.529 16.348C9.597 16.56 9.702 16.789 9.936 16.977C9.969 16.625 10.175 15.512 10.725 14.861C10.789 15.301 10.875 15.752 10.875 16.703C10.875 19.017 10.319 20.726 9.138 21.052C9.292 21.319 9.617 21.56 9.954 21.56C10.386 21.56 10.621 21.071 10.861 20.61C10.986 20.95 11.331 21.784 11.677 21.784C12.023 21.784 12.369 20.95 12.494 20.61C12.733 21.071 12.969 21.56 13.401 21.56C13.738 21.56 14.063 21.319 14.217 21.052C13.036 20.726 12.479 19.017 12.479 16.703C12.479 15.752 12.565 15.301 12.629 14.861C13.18 15.512 13.387 16.625 13.418 16.977C13.653 16.789 13.759 16.56 13.826 16.348C14.272 16.895 14.788 17.649 14.904 17.906C14.473 17.906 13.957 17.806 13.794 17.806C13.362 17.806 13.26 18.049 13.26 18.264C13.26 18.589 13.591 18.884 13.819 19.093C14.02 18.656 14.861 18.723 14.861 18.723C15.023 18.723 15.109 18.723 15.321 18.752C15.301 18.866 15.3 19.024 15.301 19.144C15.303 19.327 15.303 19.46 15.304 19.596C15.304 20.118 15.284 20.396 14.9 20.749C14.969 20.797 15.169 20.956 15.459 20.956C16.05 20.956 16.135 20.528 16.135 19.597C16.135 19.485 16.138 19.495 16.13 19.399C16.425 19.721 16.774 20.182 16.774 20.576C16.774 20.648 16.778 20.743 16.749 20.847C17.215 20.847 17.569 20.364 17.569 20.042C17.569 19.556 16.822 18.952 16.582 18.687C16.621 18.684 16.649 18.682 16.664 18.682C17.481 18.682 17.646 18.956 17.728 19.161C17.946 18.983 18.134 18.664 18.134 18.263C18.134 18.032 18.084 17.774 17.642 17.774C17.22 17.774 16.576 17.836 16.132 17.916C15.791 17.44 15.119 16.519 14.804 15.806C14.931 15.828 15.112 15.843 15.391 15.843C15.531 15.843 15.681 15.83 15.768 15.792C14.414 14.62 13.286 13.102 13.286 11.383C13.286 11.108 13.351 10.832 13.444 10.536C13.477 10.529 13.513 10.524 13.547 10.518L16.965 15.988C17.988 17.606 18.791 17.578 20 17.578C19.004 16.815 18.335 15.828 18.022 15.328L14.814 10.195C14.988 10.14 15.159 10.078 15.327 10.014L18.164 14.557C19.188 16.175 19.99 16.147 21.2 16.147C20.193 15.373 19.539 14.404 19.221 13.897L16.465 9.486C16.621 9.4 16.774 9.309 16.922 9.215L19.181 12.83C20.205 14.449 21.006 14.42 22.216 14.42C21.209 13.649 20.556 12.677 20.237 12.17L17.921 8.462C18.057 8.34 18.187 8.212 18.308 8.081L19.951 10.709C20.974 12.327 21.776 12.299 22.986 12.299C21.98 11.527 21.324 10.553 21.006 10.047L19.1 6.996C19.202 6.806 19.289 6.612 19.361 6.413L20.319 7.947Z" fill="black"/>
<path d="M32.927 20.956H29.427V0.955999H32.927V20.956Z" fill="black"/>
<path d="M32.927 40.956H29.427V20.956H32.927V40.956Z" fill="#FF0000"/>
<path d="M32.927 60.956H29.427V40.956H32.927V60.956Z" fill="#FFCC00"/>
</svg>
