<svg width="300" height="177" viewBox="0 0 300 177" fill="none" xmlns="http://www.w3.org/2000/svg">
<g clip-path="url(#clip0_1115_325)">
<path d="M41.0127 52.9612C41.052 53.7346 40.9385 54.5082 40.6786 55.2378C40.4188 55.9674 40.0177 56.6385 39.4982 57.213C38.9788 57.7874 38.3512 58.2538 37.6514 58.5855C36.9516 58.9172 36.1932 59.1077 35.4197 59.1462C33.8564 59.2248 32.326 58.6794 31.1648 57.6298C30.0036 56.5802 29.3069 55.1124 29.2277 53.5492C29.1619 51.9935 29.7137 50.475 30.7629 49.3245C31.812 48.174 33.2733 47.4848 34.8284 47.4072C36.3835 47.3297 37.9062 47.8699 39.0646 48.9103C40.2231 49.9506 40.9233 51.4067 41.0127 52.9612Z" fill="#F5C500"/>
<path d="M32.8297 40.4122C32.8636 41.0716 32.7672 41.7312 32.5459 42.3533C32.3246 42.9753 31.9827 43.5476 31.5399 44.0374C31.0971 44.5272 30.5621 44.9249 29.9654 45.2076C29.3688 45.4904 28.7222 45.6526 28.0627 45.6852C26.7311 45.751 25.4279 45.2856 24.4392 44.3913C23.4505 43.4969 22.8572 42.2466 22.7897 40.9152C22.7244 39.5835 23.1905 38.2805 24.0855 37.2923C24.9805 36.3041 26.2311 35.7117 27.5627 35.6452C28.2217 35.6115 28.8809 35.7082 29.5025 35.9297C30.1241 36.1512 30.696 36.4931 31.1852 36.9359C31.6745 37.3787 32.0716 37.9137 32.3538 38.5102C32.6359 39.1067 32.7977 39.7531 32.8297 40.4122Z" fill="#F7D133"/>
<path d="M22.6357 31.5372C22.661 32.0411 22.5868 32.5451 22.4173 33.0204C22.2479 33.4957 21.9864 33.9329 21.6479 34.3072C21.3095 34.6814 20.9006 34.9853 20.4447 35.2015C19.9887 35.4177 19.4947 35.5419 18.9907 35.5672C17.9723 35.6175 16.9756 35.2616 16.2194 34.5776C15.4632 33.8936 15.0095 32.9375 14.9577 31.9192C14.9077 30.9007 15.2642 29.904 15.9488 29.1482C16.6335 28.3925 17.5902 27.9396 18.6087 27.8892C19.1127 27.864 19.6167 27.9384 20.092 28.1082C20.5672 28.2779 21.0043 28.5397 21.3783 28.8785C21.7523 29.2173 22.0559 29.6265 22.2716 30.0827C22.4874 30.5389 22.6111 31.0331 22.6357 31.5372Z" fill="#F8D64C"/>
<path d="M13.7367 25.0312C13.7653 25.4553 13.7092 25.8809 13.5716 26.2832C13.434 26.6854 13.2176 27.0562 12.9352 27.374C12.6527 27.6917 12.3099 27.9501 11.9265 28.1339C11.5432 28.3177 11.1271 28.4234 10.7025 28.4447C10.2779 28.466 9.8533 28.4025 9.45349 28.258C9.05368 28.1135 8.68664 27.8908 8.37381 27.603C8.06097 27.3151 7.80858 26.9678 7.63138 26.5814C7.45418 26.1949 7.3557 25.7771 7.3417 25.3522C7.31309 24.928 7.36922 24.5024 7.50683 24.1001C7.64445 23.6979 7.86079 23.3271 8.14323 23.0093C8.42567 22.6916 8.76855 22.4333 9.15189 22.2494C9.53522 22.0656 9.95132 21.96 10.3759 21.9386C10.8005 21.9173 11.2251 21.9808 11.6249 22.1253C12.0247 22.2698 12.3918 22.4925 12.7046 22.7804C13.0174 23.0682 13.2698 23.4155 13.447 23.802C13.6242 24.1884 13.7227 24.6063 13.7367 25.0312Z" fill="#F9DC66"/>
<path d="M4.9917 21.0352C5.01705 21.3676 4.97558 21.7018 4.86974 22.018C4.7639 22.3342 4.59584 22.626 4.37545 22.8762C4.15507 23.1264 3.88682 23.3299 3.58653 23.4748C3.28624 23.6197 2.95997 23.703 2.62697 23.7199C2.29397 23.7367 1.96097 23.6867 1.6476 23.5728C1.33423 23.4589 1.04684 23.2834 0.802359 23.0567C0.557879 22.83 0.361261 22.5566 0.224095 22.2527C0.0869302 21.9488 0.0119935 21.6205 0.00370289 21.2872C-0.012495 20.6359 0.226346 20.0041 0.669303 19.5265C1.11226 19.0488 1.72429 18.7631 2.37489 18.7302C3.02549 18.6974 3.6632 18.9199 4.15204 19.3505C4.64088 19.7811 4.94218 20.3856 4.9917 21.0352Z" fill="#FAE280"/>
<path d="M60.6907 43.6312C60.7298 44.4046 60.6161 45.1781 60.3561 45.9075C60.0961 46.637 59.695 47.308 59.1756 47.8824C58.6562 48.4568 58.0287 48.9232 57.329 49.255C56.6293 49.5868 55.8711 49.7775 55.0977 49.8162C54.3168 49.8674 53.5336 49.7627 52.7936 49.5082C52.0535 49.2538 51.3715 48.8546 50.7873 48.334C50.203 47.8134 49.7282 47.1818 49.3905 46.4759C49.0527 45.77 48.8588 45.0039 48.82 44.2223C48.7812 43.4408 48.8982 42.6593 49.1644 41.9234C49.4306 41.1875 49.8405 40.5119 50.3703 39.936C50.9001 39.3601 51.5392 38.8953 52.2504 38.5688C52.9616 38.2423 53.7306 38.0606 54.5127 38.0342C55.2859 37.9958 56.0591 38.1101 56.7881 38.3707C57.5171 38.6312 58.1876 39.0329 58.7613 39.5526C59.3351 40.0724 59.8008 40.7001 60.1318 41.3999C60.4629 42.0998 60.6528 42.8579 60.6907 43.6312Z" fill="#009E6B"/>
<path d="M52.5137 31.0812C52.5793 32.4132 52.1134 33.7167 51.2184 34.7054C50.3235 35.6941 49.0726 36.2871 47.7407 36.3542C47.0816 36.3869 46.4226 36.2895 45.8012 36.0674C45.1798 35.8454 44.6082 35.5031 44.1191 35.0602C43.63 34.6172 43.233 34.0823 42.9506 33.4859C42.6683 32.8894 42.5063 32.2432 42.4737 31.5842C42.407 30.2528 42.8719 28.9494 43.7662 27.9608C44.6605 26.9722 45.9108 26.3794 47.2422 26.3127C48.5736 26.246 49.8769 26.7109 50.8655 27.6052C51.8541 28.4994 52.447 29.7498 52.5137 31.0812Z" fill="#33B189"/>
<path d="M42.3137 22.2042C42.34 22.7079 42.2667 23.2119 42.098 23.6873C41.9294 24.1628 41.6686 24.6003 41.3308 24.9748C40.9929 25.3494 40.5845 25.6537 40.1289 25.8703C39.6733 26.0869 39.1795 26.2116 38.6757 26.2372C38.1713 26.2625 37.667 26.1882 37.1913 26.0186C36.7157 25.8489 36.2781 25.5873 35.9036 25.2485C35.5291 24.9098 35.225 24.5006 35.0086 24.0443C34.7923 23.588 34.6679 23.0935 34.6427 22.5892C34.6166 22.085 34.6902 21.5807 34.8594 21.1051C35.0286 20.6294 35.29 20.1919 35.6286 19.8175C35.9672 19.4431 36.3764 19.1392 36.8327 18.9233C37.289 18.7074 37.7835 18.5836 38.2877 18.5592C38.7916 18.5332 39.2957 18.6069 39.771 18.7762C40.2463 18.9455 40.6836 19.207 41.0576 19.5456C41.4317 19.8843 41.7352 20.2934 41.9507 20.7497C42.1663 21.2059 42.2896 21.7002 42.3137 22.2042Z" fill="#4CBB98"/>
<path d="M33.4217 15.7012C33.4427 16.1216 33.3807 16.542 33.2392 16.9385C33.0978 17.335 32.8796 17.6997 32.5971 18.0118C32.3147 18.324 31.9736 18.5774 31.5932 18.7577C31.2128 18.938 30.8006 19.0417 30.3802 19.0627C29.9598 19.0837 29.5393 19.0217 29.1429 18.8802C28.7464 18.7387 28.3817 18.5205 28.0695 18.2381C27.7574 17.9557 27.5039 17.6145 27.3236 17.2341C27.1433 16.8538 27.0397 16.4416 27.0187 16.0212C26.9763 15.1721 27.2729 14.3409 27.8433 13.7105C28.4137 13.0801 29.2111 12.7021 30.0602 12.6597C30.9093 12.6172 31.7405 12.9138 32.3709 13.4842C33.0013 14.0546 33.3793 14.8521 33.4217 15.7012Z" fill="#66C5A6"/>
<path d="M24.6767 11.7052C24.7094 12.3665 24.4784 13.0138 24.0345 13.5052C23.5906 13.9965 22.97 14.2918 22.3087 14.3262C21.6462 14.3588 20.9978 14.1277 20.5055 13.6833C20.0131 13.2389 19.7169 12.6175 19.6817 11.9552C19.6515 11.2934 19.8841 10.6466 20.3288 10.1556C20.7735 9.66463 21.3942 9.36937 22.0557 9.33416C22.7174 9.30232 23.3647 9.53394 23.8559 9.97833C24.3471 10.4227 24.6423 11.0436 24.6767 11.7052Z" fill="#80CEB5"/>
<path d="M80.3757 34.3002C80.4532 35.8628 79.9069 37.3922 78.8569 38.5521C77.807 39.7119 76.3393 40.4073 74.7767 40.4852C74.0035 40.5237 73.2303 40.4095 72.5012 40.149C71.7722 39.8886 71.1016 39.4871 70.5278 38.9674C69.9539 38.4477 69.4881 37.8201 69.157 37.1203C68.8258 36.4206 68.6358 35.6624 68.5977 34.8892C68.5585 34.1157 68.6721 33.3422 68.932 32.6127C69.1919 31.8832 69.5931 31.212 70.1125 30.6376C70.6319 30.0632 71.2594 29.5968 71.9592 29.2651C72.659 28.9333 73.4172 28.7427 74.1907 28.7042C74.9643 28.6651 75.7381 28.7789 76.4677 29.0391C77.1974 29.2992 77.8686 29.7006 78.443 30.2203C79.0174 30.74 79.4837 31.3679 79.8154 32.0679C80.147 32.7679 80.3374 33.5265 80.3757 34.3002Z" fill="#0478A6"/>
<path d="M72.1987 21.7512C72.2314 22.4106 72.1339 23.0701 71.9117 23.6918C71.6896 24.3136 71.3471 24.8855 70.9039 25.3749C70.4606 25.8642 69.9253 26.2615 69.3285 26.544C68.7317 26.8265 68.0852 26.9886 67.4257 27.0212C66.107 27.0667 64.8233 26.592 63.8515 25.6994C62.8798 24.8069 62.2979 23.568 62.2315 22.2502C62.1651 20.9324 62.6194 19.6413 63.4965 18.6556C64.3736 17.6698 65.6031 17.0684 66.9197 16.9812C68.252 16.9148 69.5562 17.3798 70.546 18.2741C71.5357 19.1684 72.1301 20.419 72.1987 21.7512Z" fill="#3693B8"/>
<path d="M61.9987 12.8732C62.0499 13.8911 61.6948 14.8877 61.0115 15.6439C60.3282 16.4002 59.3726 16.8542 58.3547 16.9062C57.3363 16.9568 56.3394 16.601 55.5831 15.9169C54.8269 15.2329 54.3732 14.2766 54.3217 13.2582C54.2703 12.2402 54.6253 11.2434 55.3086 10.4871C55.992 9.73083 56.9477 9.2769 57.9657 9.22517C58.9841 9.17483 59.9808 9.53074 60.737 10.2147C61.4932 10.8987 61.947 11.8549 61.9987 12.8732Z" fill="#50A0C1"/>
<path d="M53.1057 6.37016C53.1468 7.21931 52.849 8.05 52.2778 8.67968C51.7066 9.30935 50.9088 9.68648 50.0597 9.72816C49.6399 9.7493 49.2201 9.68749 48.8243 9.54627C48.4284 9.40504 48.0643 9.18717 47.7527 8.90511C47.4411 8.62305 47.1881 8.28233 47.0083 7.90245C46.8285 7.52256 46.7253 7.11095 46.7047 6.69116C46.683 6.27121 46.7443 5.8511 46.8851 5.45485C47.0258 5.0586 47.2433 4.69398 47.5251 4.38184C47.8069 4.06969 48.1474 3.81615 48.5272 3.63569C48.9071 3.45524 49.3187 3.35142 49.7387 3.33016C50.1596 3.3078 50.5808 3.36878 50.978 3.50961C51.3753 3.65043 51.7408 3.86832 52.0537 4.15078C52.3665 4.43323 52.6205 4.77469 52.801 5.15555C52.9816 5.53642 53.0851 5.94918 53.1057 6.37016Z" fill="#69AECA"/>
<path d="M44.3617 2.37416C44.3781 2.70214 44.3298 3.03014 44.2194 3.33943C44.1091 3.64872 43.9389 3.93325 43.7186 4.17678C43.4983 4.4203 43.2322 4.61804 42.9354 4.75872C42.6387 4.89939 42.3172 4.98025 41.9892 4.99666C41.6612 5.01308 41.3332 4.96473 41.0239 4.85439C40.7146 4.74404 40.4301 4.57386 40.1866 4.35355C39.6948 3.90862 39.3999 3.28654 39.3667 2.62416C39.3336 1.96179 39.5649 1.31337 40.0098 0.821554C40.4547 0.329739 41.0768 0.0348164 41.7392 0.00166438C42.4016 -0.0314877 43.05 0.199847 43.5418 0.644777C44.0336 1.08971 44.3285 1.71179 44.3617 2.37416ZM88.2197 32.7372C87.4651 33.2378 86.8462 33.9173 86.418 34.7153C85.9898 35.5132 85.7657 36.4046 85.7657 37.3102V76.9942C85.7657 77.0432 85.7537 77.0932 85.7537 77.1482C85.4207 93.3182 72.2117 106.324 55.9677 106.324C39.7117 106.324 26.5147 93.3182 26.1757 77.1482C26.1757 77.0922 26.1577 77.0432 26.1577 76.9942V64.4162C26.1583 63.5105 25.9345 62.6188 25.5063 61.8208C25.078 61.0228 24.4587 60.3433 23.7037 59.8432L13.7377 53.2422C11.5547 51.7902 8.6317 53.3592 8.6317 55.9862V78.7392C8.6317 78.8192 8.6557 78.8992 8.6557 78.9862C9.1857 104.665 30.1537 125.324 55.9687 125.324C81.7707 125.324 102.739 104.665 103.275 78.9862C103.281 78.9002 103.3 78.8202 103.3 78.7392V30.8162C103.3 28.1892 100.377 26.6192 98.1877 28.0722L88.2197 32.7372Z" fill="#82BBD3"/>
<path d="M71.7797 76.8152C71.7797 85.5472 64.6997 92.6272 55.9677 92.6272C47.2357 92.6272 40.1557 85.5472 40.1557 76.8152C40.1557 68.0832 47.2357 61.0032 55.9677 61.0032C64.6997 61.0032 71.7797 68.0832 71.7797 76.8152ZM113.503 98.5182H118.795C123.007 98.5182 126.434 99.0782 129.753 101.911C132.964 104.67 134.417 108.436 134.417 112.614C134.417 116.713 132.924 120.332 129.831 123.091C126.473 126.071 123.115 126.631 118.716 126.631H113.502L113.503 98.5182ZM118.903 123.724C122.33 123.724 125.207 123.238 127.779 120.813C130.086 118.653 131.284 115.707 131.284 112.575C131.284 109.369 130.047 106.276 127.631 104.15C125.058 101.877 122.221 101.43 118.902 101.43H116.634V123.724H118.903ZM142.97 102.51C142.97 103.074 142.746 103.615 142.347 104.013C141.948 104.412 141.408 104.636 140.844 104.636C140.28 104.636 139.739 104.412 139.34 104.013C138.942 103.615 138.718 103.074 138.718 102.51C138.718 101.351 139.69 100.384 140.839 100.384C141.998 100.384 142.97 101.351 142.97 102.51ZM142.331 126.63H139.356V109.108H142.331V126.63ZM165.112 125.771C165.112 128.569 165.112 130.99 163.325 133.307C161.685 135.398 159.152 136.4 156.54 136.4C151.66 136.4 148.037 133.307 147.929 128.343H150.914C150.953 131.588 153.3 133.64 156.501 133.64C161.126 133.64 162.137 130.247 162.137 126.295V124.204H162.058C160.644 126.03 158.327 127.115 155.98 127.115C150.874 127.115 147.634 122.824 147.634 117.944C147.634 113.02 150.914 108.621 156.098 108.621C158.513 108.621 160.644 109.701 162.058 111.606H162.137V109.107H165.112V125.771ZM150.687 117.685C150.687 121.112 152.7 124.357 156.431 124.357C160.27 124.357 162.283 121.259 162.283 117.719C162.283 114.214 160.084 111.381 156.392 111.381C152.926 111.381 150.687 114.401 150.687 117.685ZM175.117 102.51C175.117 103.074 174.893 103.615 174.494 104.013C174.095 104.412 173.555 104.636 172.991 104.636C172.427 104.636 171.886 104.412 171.487 104.013C171.089 103.615 170.865 103.074 170.865 102.51C170.865 101.351 171.837 100.384 172.986 100.384C174.145 100.384 175.117 101.351 175.117 102.51ZM174.479 126.63H171.504V109.108H174.479V126.63ZM185.329 126.63H182.354V111.867H180.528V109.108H182.354V102.809H185.329V109.108H188.461V111.867H185.329V126.63ZM209.2 126.63H206.225V124.205H206.146C204.614 126.144 202.572 127.116 200.107 127.116C194.962 127.116 191.721 122.751 191.721 117.906C191.721 112.913 194.883 108.622 200.146 108.622C202.532 108.622 204.692 109.741 206.145 111.607H206.224V109.108H209.199L209.2 126.63ZM194.775 117.685C194.775 121.112 196.788 124.357 200.519 124.357C204.358 124.357 206.371 121.259 206.371 117.719C206.371 114.214 204.172 111.381 200.48 111.381C197.014 111.381 194.775 114.401 194.775 117.685ZM218.39 126.63H215.405V95.8722H218.39V126.63ZM253.101 109.928V98.5182H256.233V126.63H253.101V112.834H238.716V126.63H235.584V98.5182H238.716V109.928H253.101ZM264.835 118.873C264.835 121.819 265.169 124.357 268.782 124.357C272.395 124.357 272.729 121.819 272.729 118.873V109.108H275.714V119.212C275.714 123.871 273.966 127.116 268.782 127.116C263.598 127.116 261.85 123.871 261.85 119.212V109.108H264.835V118.873ZM281.007 95.8722H283.992V111.607H284.071C284.771 110.679 285.678 109.926 286.719 109.408C287.76 108.89 288.907 108.621 290.07 108.622C295.294 108.622 298.495 112.913 298.495 117.867C298.495 122.752 295.255 127.117 290.11 127.117C287.685 127.117 285.485 126.111 284.071 124.206H283.992V126.631H281.007V95.8722ZM283.844 117.685C283.844 121.112 285.857 124.357 289.588 124.357C293.427 124.357 295.44 121.259 295.44 117.719C295.44 114.214 293.241 111.381 289.549 111.381C286.083 111.381 283.844 114.401 283.844 117.685ZM30.3937 148.101C28.3917 146.029 25.6267 144.765 22.7197 144.765C17.1267 144.765 12.5877 149.629 12.5877 155.169C12.5877 160.7 17.1537 165.564 22.7897 165.564C25.6257 165.564 28.3917 164.229 30.3927 162.236V165.695C28.2237 167.267 25.5547 168.162 22.8857 168.162C15.7917 168.162 9.7857 162.394 9.7857 155.264C9.7857 148.065 15.6857 142.165 22.8857 142.165C25.6867 142.165 28.1537 142.964 30.3927 144.632L30.3937 148.101ZM37.1367 140.234V153.895L37.2067 153.965C38.3037 152.464 39.7357 151.63 41.6757 151.63C46.0037 151.63 47.0047 154.764 47.0047 158.434V167.732H44.3357V158.9C44.3357 156.363 44.1427 154.097 41.0437 154.097C37.3737 154.097 37.1367 157.495 37.1367 160.296V167.733H34.4767V140.235H37.1367V140.234ZM53.4057 160.463C53.4407 163.369 55.5127 165.696 58.5417 165.696C60.8067 165.696 62.2727 164.335 63.3087 162.465L65.5737 163.764C64.0727 166.565 61.5437 168.163 58.3387 168.163C53.6767 168.163 50.6737 164.598 50.6737 160.103C50.6737 155.467 53.3777 151.63 58.2767 151.63C63.3077 151.63 65.9767 155.8 65.7047 160.463H53.4057ZM62.9137 158.198C62.5447 155.933 60.6397 154.098 58.3127 154.098C56.0127 154.098 53.8787 155.933 53.5457 158.198H62.9137ZM72.7207 153.764H72.7907C73.6247 152.465 74.9597 151.631 76.5577 151.631C78.3927 151.631 80.0607 152.597 80.8947 154.23C81.8257 152.5 83.6867 151.631 85.5917 151.631C89.5957 151.631 90.5877 154.897 90.5877 158.198V167.733H87.9277V158.628C87.9277 156.6 87.7877 154.098 85.0567 154.098C81.9927 154.098 81.6587 157.066 81.6587 159.436V167.733H78.9897V158.83C78.9897 156.898 78.7617 154.098 76.1887 154.098C73.0547 154.098 72.7207 157.268 72.7207 159.629V167.733H70.0607V152.061H72.7207V153.764ZM99.4027 146.161C99.4085 146.414 99.3636 146.666 99.2708 146.902C99.1779 147.138 99.0388 147.352 98.8617 147.533C98.6847 147.715 98.4732 147.859 98.2397 147.957C98.0063 148.055 97.7555 148.106 97.5022 148.106C97.2489 148.106 96.9981 148.055 96.7647 147.957C96.5312 147.859 96.3197 147.715 96.1427 147.533C95.9656 147.352 95.8265 147.138 95.7337 146.902C95.6408 146.666 95.5959 146.414 95.6017 146.161C95.6017 145.134 96.4707 144.265 97.4977 144.265C98.5337 144.264 99.4027 145.133 99.4027 146.161ZM98.8317 167.733H96.1717V152.061H98.8317V167.733ZM110.747 155.696C110.378 154.862 109.579 154.098 108.614 154.098C107.683 154.098 106.682 154.836 106.682 155.836C106.682 157.267 108.482 157.803 110.317 158.567C112.143 159.331 113.943 160.428 113.943 163.062C113.943 166.03 111.546 168.163 108.649 168.163C106.015 168.163 103.943 166.662 103.109 164.203L105.48 163.202C106.147 164.668 106.911 165.695 108.685 165.695C110.116 165.695 111.214 164.729 111.214 163.298C111.214 159.795 104.146 160.998 104.146 156.063C104.146 153.429 106.279 151.629 108.817 151.629C110.617 151.629 112.285 152.893 112.979 154.526L110.747 155.696ZM121.344 167.733H118.684V154.528H117.051V152.061H118.684V146.433H121.344V152.061H124.145V154.528H121.344V167.733ZM130.756 153.764H130.826C131.757 152.535 132.556 151.631 134.294 151.631C135.19 151.631 135.927 151.93 136.691 152.369L135.427 154.801C134.891 154.432 134.523 154.099 133.82 154.099C130.888 154.099 130.756 157.866 130.756 159.902V167.734H128.087V152.062H130.756V153.764ZM138.289 152.061H141.397L146.928 163.299L151.994 152.061H155.023L143.46 176.53H140.422L145.497 166.266L138.289 152.061ZM186.359 167.733L183.225 164.915C181.144 167.066 178.607 168.19 175.508 168.19C170.389 168.19 167.009 165.266 167.009 161.105C167.009 157.935 169.09 155.609 171.873 154.476C170.354 152.746 169.652 151.306 169.652 149.542C169.652 145.837 172.611 143.229 176.632 143.229C180.442 143.229 183.12 145.626 183.577 149.647H180.899C180.548 147.004 178.853 145.626 176.597 145.626C174.165 145.626 172.435 147.25 172.435 149.612C172.435 152.149 174.551 153.914 178.572 157.435L182.979 161.421L186.719 156.03H189.537L184.919 162.799C184.849 162.869 184.814 162.939 184.743 163.045L189.958 167.733H186.359ZM181.424 163.29L176.279 158.672C175.252 157.759 174.339 156.942 173.566 156.205C171.239 157.118 169.65 158.813 169.65 161.069C169.65 163.747 172.047 165.793 175.541 165.793C177.798 165.792 179.765 164.914 181.424 163.29ZM221.311 152.798V142.596H224.112V167.733H221.311V155.397H208.449V167.733H205.648V142.596H208.449V152.798H221.311ZM231.329 160.463C231.364 163.369 233.436 165.696 236.465 165.696C238.73 165.696 240.196 164.335 241.232 162.465L243.497 163.764C241.996 166.565 239.467 168.163 236.262 168.163C231.6 168.163 228.597 164.598 228.597 160.103C228.597 155.467 231.301 151.63 236.2 151.63C241.231 151.63 243.9 155.8 243.628 160.463H231.329ZM240.837 158.198C240.468 155.933 238.563 154.098 236.236 154.098C233.936 154.098 231.802 155.933 231.469 158.198H240.837ZM261.935 167.733H259.275V165.564H259.205C257.835 167.302 256.009 168.163 253.805 168.163C249.204 168.163 246.307 164.265 246.307 159.936C246.307 155.467 249.134 151.63 253.84 151.63C255.973 151.63 257.905 152.631 259.204 154.299H259.274V152.06H261.934V167.733H261.935ZM249.038 159.734C249.038 162.798 250.838 165.696 254.174 165.696C257.607 165.696 259.407 162.93 259.407 159.77C259.407 156.636 257.44 154.098 254.139 154.098C251.04 154.098 249.038 156.802 249.038 159.734ZM269.82 167.733H267.151V140.235H269.82V167.733ZM279.258 167.733H276.589V154.528H274.956V152.061H276.589V146.433H279.258V152.061H282.05V154.528H279.258V167.733ZM288.626 140.234V153.895L288.696 153.965C289.793 152.464 291.225 151.63 293.165 151.63C297.493 151.63 298.494 154.764 298.494 158.434V167.732H295.825V158.9C295.825 156.363 295.632 154.097 292.533 154.097C288.863 154.097 288.626 157.495 288.626 160.296V167.733H285.966V140.235H288.626V140.234Z" fill="#0478A6"/>
<path d="M152.255 64.8982C152.22 75.4632 144.395 83.0912 133.279 83.0562C122.159 83.0212 115.161 76.9332 113.695 67.3092L124.102 67.3402C125.349 71.4452 128.185 73.8962 133.31 73.9132C138.435 73.9262 142.225 70.3112 142.238 65.1862C142.255 60.2972 138.404 56.7392 132.251 56.7172L116.089 56.6692L116.176 28.4452L150.159 28.5462L150.128 38.0872L126.001 38.0152L125.97 47.5532L133.62 47.5752C144.737 47.6112 152.286 54.8842 152.255 64.8982Z" fill="#1D1D1C"/>
<path d="M161.153 66.5042L161.179 56.9632L188.694 57.0462L188.668 66.5872L161.153 66.5042Z" fill="#0478A6"/>
<path d="M244.432 28.8292L244.27 82.4432L233.548 82.4122L233.609 61.2042L208.851 61.1302L208.79 82.3382L198.068 82.3032L198.23 28.6912L208.952 28.7222L208.882 51.1952L233.64 51.2692L233.71 28.7962L244.432 28.8292ZM299.969 38.9302L281.754 38.8752L281.623 82.5522L270.901 82.5212L271.032 38.8422L252.817 38.7872L252.848 28.8522L300 28.9952L299.969 38.9302Z" fill="#1D1D1C"/>
</g>
<defs>
<clipPath id="clip0_1115_325">
<rect width="300" height="176.53" fill="white"/>
</clipPath>
</defs>
</svg>
